<?xml version="1.0" encoding="UTF-8"?>
<svg xmlns="http://www.w3.org/2000/svg" viewBox="0 0 512 512" width="48" height="48" shape-rendering="geometricPrecision">
  <defs>
      
      <symbol id="frame" viewBox="0 0 512 512">
        <rect width="512" height="512" fill="#12100D"></rect>
        
        <circle cx="256" cy="256" r="244" fill="none" stroke="#5C3A1C" stroke-width="1"></circle>
        
        <circle cx="256" cy="256" r="232" fill="none" stroke="#D4AE58" stroke-width="2.2"></circle>
        
        <circle cx="256" cy="256" r="220" fill="none" stroke="#B8893D" stroke-width="1" stroke-dasharray="1.5 4"></circle>
        
        <g fill="#D4AE58">
          <rect x="254" y="6" width="4" height="14"></rect>
          <rect x="254" y="492" width="4" height="14"></rect>
          <rect x="6" y="254" width="14" height="4"></rect>
          <rect x="492" y="254" width="14" height="4"></rect>
        </g>
        
        <g fill="#B8893D">
          <circle cx="92" cy="92" r="2.4"></circle>
          <circle cx="420" cy="92" r="2.4"></circle>
          <circle cx="92" cy="420" r="2.4"></circle>
          <circle cx="420" cy="420" r="2.4"></circle>
        </g>
        
        <g fill="#D4AE58">
          <path d="M256 22 l2 6 6 2 -6 2 -2 6 -2 -6 -6 -2 6 -2z" opacity="0"></path>
        </g>
      </symbol>

      
      <pattern id="hatch" patternUnits="userSpaceOnUse" width="6" height="6" patternTransform="rotate(45)">
        <line x1="0" y1="0" x2="0" y2="6" stroke="#8B5A2B" stroke-width="1"></line>
      </pattern>
      <pattern id="hatchLight" patternUnits="userSpaceOnUse" width="5" height="5" patternTransform="rotate(45)">
        <line x1="0" y1="0" x2="0" y2="5" stroke="#B8893D" stroke-width=".8" opacity=".55"></line>
      </pattern>
      <pattern id="stipple" patternUnits="userSpaceOnUse" width="6" height="6">
        <circle cx="1" cy="1" r=".7" fill="#8B5A2B"></circle>
      </pattern>
    </defs>
  <use href="#frame"></use>
  
    <g>
      <path d="M120 168 L392 156 L400 360 L132 372 Z" fill="#5C3A1C" stroke="#B8893D" stroke-width="1.6"></path>
      
      <path d="M150 220 q40 -20 90 -6 t110 0" fill="none" stroke="#8B5A2B" stroke-width="1.4"></path>
      <path d="M160 290 q60 18 130 4 t100 -4" fill="none" stroke="#8B5A2B" stroke-width="1.4"></path>
      <g fill="#8B5A2B">
        <circle cx="178" cy="200" r="2"></circle><circle cx="222" cy="346" r="2"></circle>
        <circle cx="356" cy="206" r="2"></circle><circle cx="372" cy="332" r="2"></circle>
      </g>
      
      <path d="M120 168 l8 -6 6 6 8 -6 6 6 8 -6" fill="none" stroke="#B8893D" stroke-width="1.2"></path>
      <path d="M392 156 l4 -6 6 6 4 -6" fill="none" stroke="#B8893D" stroke-width="1.2"></path>
    </g>
    
    <g transform="translate(256 264)">
      <circle r="78" fill="#12100D" stroke="#D4AE58" stroke-width="2.4"></circle>
      <circle r="64" fill="none" stroke="#B8893D" stroke-width="1" stroke-dasharray="2 3"></circle>
      
      <g fill="#D4AE58" stroke="#5C3A1C" stroke-width="1">
        <polygon points="0,-72 7,-10 -7,-10"></polygon>
        <polygon points="0,72 7,10 -7,10" fill="#8B5A2B"></polygon>
        <polygon points="-72,0 -10,-7 -10,7" fill="#B8893D"></polygon>
        <polygon points="72,0 10,-7 10,7" fill="#B8893D"></polygon>
      </g>
      <g fill="#B8893D">
        <polygon points="51,-51 8,-8 0,0 0,0"></polygon>
        <polygon points="-51,-51 -8,-8 0,0 0,0"></polygon>
        <polygon points="51,51 8,8 0,0"></polygon>
        <polygon points="-51,51 -8,8 0,0"></polygon>
      </g>
      <circle r="6" fill="#D4AE58"></circle>
      <circle r="2.5" fill="#12100D"></circle>
    </g>
</svg>