<?xml version="1.0" encoding="UTF-8"?>
<svg xmlns="http://www.w3.org/2000/svg" viewBox="0 0 512 512" width="48" height="48" shape-rendering="geometricPrecision">
  <defs>
      
      <symbol id="frame" viewBox="0 0 512 512">
        <rect width="512" height="512" fill="#12100D"></rect>
        
        <circle cx="256" cy="256" r="244" fill="none" stroke="#5C3A1C" stroke-width="1"></circle>
        
        <circle cx="256" cy="256" r="232" fill="none" stroke="#D4AE58" stroke-width="2.2"></circle>
        
        <circle cx="256" cy="256" r="220" fill="none" stroke="#B8893D" stroke-width="1" stroke-dasharray="1.5 4"></circle>
        
        <g fill="#D4AE58">
          <rect x="254" y="6" width="4" height="14"></rect>
          <rect x="254" y="492" width="4" height="14"></rect>
          <rect x="6" y="254" width="14" height="4"></rect>
          <rect x="492" y="254" width="14" height="4"></rect>
        </g>
        
        <g fill="#B8893D">
          <circle cx="92" cy="92" r="2.4"></circle>
          <circle cx="420" cy="92" r="2.4"></circle>
          <circle cx="92" cy="420" r="2.4"></circle>
          <circle cx="420" cy="420" r="2.4"></circle>
        </g>
        
        <g fill="#D4AE58">
          <path d="M256 22 l2 6 6 2 -6 2 -2 6 -2 -6 -6 -2 6 -2z" opacity="0"></path>
        </g>
      </symbol>

      
      <pattern id="hatch" patternUnits="userSpaceOnUse" width="6" height="6" patternTransform="rotate(45)">
        <line x1="0" y1="0" x2="0" y2="6" stroke="#8B5A2B" stroke-width="1"></line>
      </pattern>
      <pattern id="hatchLight" patternUnits="userSpaceOnUse" width="5" height="5" patternTransform="rotate(45)">
        <line x1="0" y1="0" x2="0" y2="5" stroke="#B8893D" stroke-width=".8" opacity=".55"></line>
      </pattern>
      <pattern id="stipple" patternUnits="userSpaceOnUse" width="6" height="6">
        <circle cx="1" cy="1" r=".7" fill="#8B5A2B"></circle>
      </pattern>
    </defs>
  <use href="#frame"></use>
  <g>
      
      <path d="M256 116 L380 144 Q380 280 256 396 Q132 280 132 144 Z" fill="#8B5A2B" stroke="#D4AE58" stroke-width="2.8"></path>
      
      <path d="M256 132 L364 156 Q364 274 256 376 Q148 274 148 156 Z" fill="none" stroke="#D4AE58" stroke-width="1" stroke-dasharray="2 3"></path>
      
      <path d="M186 224 L256 196 L326 224" fill="none" stroke="#D4AE58" stroke-width="3.4"></path>
      <path d="M186 248 L256 220 L326 248" fill="none" stroke="#B8893D" stroke-width="2"></path>
      
      <g transform="translate(256 304)">
        <circle r="28" fill="none" stroke="#D4AE58" stroke-width="2"></circle>
        <g fill="#D4AE58">
          <circle r="4"></circle>
          <circle cx="0" cy="-18" r="3"></circle>
          <circle cx="0" cy="18" r="3"></circle>
          <circle cx="-18" cy="0" r="3"></circle>
          <circle cx="18" cy="0" r="3"></circle>
          <circle cx="-13" cy="-13" r="2.4"></circle>
          <circle cx="13" cy="-13" r="2.4"></circle>
          <circle cx="-13" cy="13" r="2.4"></circle>
          <circle cx="13" cy="13" r="2.4"></circle>
        </g>
      </g>
      
      <g fill="#D4AE58">
        <circle cx="170" cy="156" r="3"></circle>
        <circle cx="342" cy="156" r="3"></circle>
        <circle cx="200" cy="346" r="3"></circle>
        <circle cx="312" cy="346" r="3"></circle>
      </g>
    </g>
</svg>