<?xml version="1.0" encoding="UTF-8"?>
<svg xmlns="http://www.w3.org/2000/svg" viewBox="0 0 512 512" width="48" height="48" shape-rendering="geometricPrecision">
  <defs>
      
      <symbol id="frame" viewBox="0 0 512 512">
        <rect width="512" height="512" fill="#12100D"></rect>
        
        <circle cx="256" cy="256" r="244" fill="none" stroke="#5C3A1C" stroke-width="1"></circle>
        
        <circle cx="256" cy="256" r="232" fill="none" stroke="#D4AE58" stroke-width="2.2"></circle>
        
        <circle cx="256" cy="256" r="220" fill="none" stroke="#B8893D" stroke-width="1" stroke-dasharray="1.5 4"></circle>
        
        <g fill="#D4AE58">
          <rect x="254" y="6" width="4" height="14"></rect>
          <rect x="254" y="492" width="4" height="14"></rect>
          <rect x="6" y="254" width="14" height="4"></rect>
          <rect x="492" y="254" width="14" height="4"></rect>
        </g>
        
        <g fill="#B8893D">
          <circle cx="92" cy="92" r="2.4"></circle>
          <circle cx="420" cy="92" r="2.4"></circle>
          <circle cx="92" cy="420" r="2.4"></circle>
          <circle cx="420" cy="420" r="2.4"></circle>
        </g>
        
        <g fill="#D4AE58">
          <path d="M256 22 l2 6 6 2 -6 2 -2 6 -2 -6 -6 -2 6 -2z" opacity="0"></path>
        </g>
      </symbol>

      
      <pattern id="hatch" patternUnits="userSpaceOnUse" width="6" height="6" patternTransform="rotate(45)">
        <line x1="0" y1="0" x2="0" y2="6" stroke="#8B5A2B" stroke-width="1"></line>
      </pattern>
      <pattern id="hatchLight" patternUnits="userSpaceOnUse" width="5" height="5" patternTransform="rotate(45)">
        <line x1="0" y1="0" x2="0" y2="5" stroke="#B8893D" stroke-width=".8" opacity=".55"></line>
      </pattern>
      <pattern id="stipple" patternUnits="userSpaceOnUse" width="6" height="6">
        <circle cx="1" cy="1" r=".7" fill="#8B5A2B"></circle>
      </pattern>
    </defs>
  <use href="#frame"></use>
  <g>
      
      <path d="M120 320 L392 320 L376 348 L300 348 L300 380 L212 380 L212 348 L136 348 Z" fill="#8B5A2B" stroke="#D4AE58" stroke-width="2.4"></path>
      <line x1="138" y1="334" x2="374" y2="334" stroke="#D4AE58" stroke-width="1"></line>
      
      <path d="M120 320 q-28 -4 -36 -16 q24 0 36 4 z" fill="#B8893D" stroke="#D4AE58" stroke-width="2"></path>
      
      <g transform="translate(256 200) rotate(-30)">
        
        <rect x="-6" y="0" width="12" height="150" rx="3" fill="#8B5A2B" stroke="#D4AE58" stroke-width="2"></rect>
        <line x1="0" y1="10" x2="0" y2="140" stroke="#D4AE58" stroke-width="1"></line>
        
        <g stroke="#D4AE58" stroke-width="1.4">
          <line x1="-6" y1="90" x2="6" y2="90"></line>
          <line x1="-6" y1="100" x2="6" y2="100"></line>
          <line x1="-6" y1="110" x2="6" y2="110"></line>
        </g>
        
        <rect x="-44" y="-32" width="88" height="44" rx="4" fill="#D4AE58" stroke="#5C3A1C" stroke-width="2.4"></rect>
        <rect x="-44" y="-32" width="14" height="44" fill="#B8893D"></rect>
        <rect x="30" y="-32" width="14" height="44" fill="#B8893D"></rect>
        <circle cx="0" cy="-10" r="3" fill="#5C3A1C"></circle>
      </g>
      
      <g fill="#D4AE58">
        <circle cx="180" cy="314" r="2"></circle>
        <circle cx="172" cy="306" r="1.4"></circle>
        <circle cx="186" cy="300" r="1.4"></circle>
      </g>
    </g>
</svg>