<?xml version="1.0" encoding="UTF-8"?>
<svg xmlns="http://www.w3.org/2000/svg" viewBox="0 0 512 512" width="48" height="48" shape-rendering="geometricPrecision">
  <defs>
      
      <symbol id="frame" viewBox="0 0 512 512">
        <rect width="512" height="512" fill="#12100D"></rect>
        
        <circle cx="256" cy="256" r="244" fill="none" stroke="#5C3A1C" stroke-width="1"></circle>
        
        <circle cx="256" cy="256" r="232" fill="none" stroke="#D4AE58" stroke-width="2.2"></circle>
        
        <circle cx="256" cy="256" r="220" fill="none" stroke="#B8893D" stroke-width="1" stroke-dasharray="1.5 4"></circle>
        
        <g fill="#D4AE58">
          <rect x="254" y="6" width="4" height="14"></rect>
          <rect x="254" y="492" width="4" height="14"></rect>
          <rect x="6" y="254" width="14" height="4"></rect>
          <rect x="492" y="254" width="14" height="4"></rect>
        </g>
        
        <g fill="#B8893D">
          <circle cx="92" cy="92" r="2.4"></circle>
          <circle cx="420" cy="92" r="2.4"></circle>
          <circle cx="92" cy="420" r="2.4"></circle>
          <circle cx="420" cy="420" r="2.4"></circle>
        </g>
        
        <g fill="#D4AE58">
          <path d="M256 22 l2 6 6 2 -6 2 -2 6 -2 -6 -6 -2 6 -2z" opacity="0"></path>
        </g>
      </symbol>

      
      <pattern id="hatch" patternUnits="userSpaceOnUse" width="6" height="6" patternTransform="rotate(45)">
        <line x1="0" y1="0" x2="0" y2="6" stroke="#8B5A2B" stroke-width="1"></line>
      </pattern>
      <pattern id="hatchLight" patternUnits="userSpaceOnUse" width="5" height="5" patternTransform="rotate(45)">
        <line x1="0" y1="0" x2="0" y2="5" stroke="#B8893D" stroke-width=".8" opacity=".55"></line>
      </pattern>
      <pattern id="stipple" patternUnits="userSpaceOnUse" width="6" height="6">
        <circle cx="1" cy="1" r=".7" fill="#8B5A2B"></circle>
      </pattern>
    </defs>
  <use href="#frame"></use>
  <g>
      
      <path d="M120 168 L392 156 L400 376 L128 388 Z" fill="#5C3A1C" stroke="#D4AE58" stroke-width="2"></path>
      
      <g stroke="#8B5A2B" stroke-width="1" opacity=".9">
        <line x1="172" y1="188" x2="172" y2="368"></line>
        <line x1="224" y1="184" x2="224" y2="368"></line>
        <line x1="276" y1="180" x2="276" y2="368"></line>
        <line x1="328" y1="176" x2="328" y2="368"></line>
        <line x1="140" y1="220" x2="392" y2="216"></line>
        <line x1="140" y1="276" x2="392" y2="272"></line>
        <line x1="140" y1="332" x2="392" y2="328"></line>
      </g>
      
      <g fill="none" stroke="#D4AE58" stroke-width="2.2">
        <rect x="172" y="220" width="156" height="108"></rect>
        <line x1="172" y1="272" x2="232" y2="272"></line>
        <line x1="232" y1="272" x2="232" y2="220"></line>
        <line x1="260" y1="328" x2="260" y2="296"></line>
        <line x1="260" y1="296" x2="328" y2="296"></line>
      </g>
      
      <g transform="translate(322 162)">
        <circle r="6" fill="#D4AE58"></circle>
        <line x1="0" y1="6" x2="-44" y2="86" stroke="#D4AE58" stroke-width="3"></line>
        <line x1="0" y1="6" x2="34" y2="86" stroke="#D4AE58" stroke-width="3"></line>
        <line x1="-44" y1="86" x2="-40" y2="96" stroke="#D4AE58" stroke-width="2"></line>
        <line x1="34" y1="86" x2="32" y2="96" stroke="#D4AE58" stroke-width="2"></line>
      </g>
      
      <g stroke="#D4AE58" stroke-width="3" stroke-linecap="round" fill="none">
        <line x1="116" y1="200" x2="116" y2="320"></line>
        <line x1="100" y1="208" x2="180" y2="208"></line>
        <line x1="100" y1="216" x2="180" y2="216"></line>
      </g>
    </g>
</svg>