<?xml version="1.0" encoding="UTF-8"?>
<svg xmlns="http://www.w3.org/2000/svg" viewBox="0 0 512 512" width="48" height="48" shape-rendering="geometricPrecision">
  <defs>
      
      <symbol id="frame" viewBox="0 0 512 512">
        <rect width="512" height="512" fill="#12100D"></rect>
        
        <circle cx="256" cy="256" r="244" fill="none" stroke="#5C3A1C" stroke-width="1"></circle>
        
        <circle cx="256" cy="256" r="232" fill="none" stroke="#D4AE58" stroke-width="2.2"></circle>
        
        <circle cx="256" cy="256" r="220" fill="none" stroke="#B8893D" stroke-width="1" stroke-dasharray="1.5 4"></circle>
        
        <g fill="#D4AE58">
          <rect x="254" y="6" width="4" height="14"></rect>
          <rect x="254" y="492" width="4" height="14"></rect>
          <rect x="6" y="254" width="14" height="4"></rect>
          <rect x="492" y="254" width="14" height="4"></rect>
        </g>
        
        <g fill="#B8893D">
          <circle cx="92" cy="92" r="2.4"></circle>
          <circle cx="420" cy="92" r="2.4"></circle>
          <circle cx="92" cy="420" r="2.4"></circle>
          <circle cx="420" cy="420" r="2.4"></circle>
        </g>
        
        <g fill="#D4AE58">
          <path d="M256 22 l2 6 6 2 -6 2 -2 6 -2 -6 -6 -2 6 -2z" opacity="0"></path>
        </g>
      </symbol>

      
      <pattern id="hatch" patternUnits="userSpaceOnUse" width="6" height="6" patternTransform="rotate(45)">
        <line x1="0" y1="0" x2="0" y2="6" stroke="#8B5A2B" stroke-width="1"></line>
      </pattern>
      <pattern id="hatchLight" patternUnits="userSpaceOnUse" width="5" height="5" patternTransform="rotate(45)">
        <line x1="0" y1="0" x2="0" y2="5" stroke="#B8893D" stroke-width=".8" opacity=".55"></line>
      </pattern>
      <pattern id="stipple" patternUnits="userSpaceOnUse" width="6" height="6">
        <circle cx="1" cy="1" r=".7" fill="#8B5A2B"></circle>
      </pattern>
    </defs>
  <use href="#frame"></use>
  
    <g transform="translate(256 256)">
      
      <path d="M -30 -8&#xA;               L -132 -108&#xA;               Q -100 -80 -88 -56&#xA;               Q -76 -50 -52 -30&#xA;               Q -36 -22 -24 -10&#xA;               Z" fill="#8B5A2B" stroke="#D4AE58" stroke-width="2.4"></path>
      
      <g fill="none" stroke="#5C3A1C" stroke-width="1.6" stroke-linecap="round">
        <line x1="-30" y1="-8" x2="-132" y2="-108"></line>
        <line x1="-30" y1="-8" x2="-88" y2="-56"></line>
        <line x1="-30" y1="-8" x2="-52" y2="-30"></line>
      </g>
      
      <g fill="none" stroke="#D4AE58" stroke-width="1" opacity=".6">
        <path d="M -100 -84 q -4 16 -10 22"></path>
        <path d="M -78 -52 q -4 10 -10 14"></path>
      </g>

      
      <path d="M -76 22&#xA;               Q -120 30 -136 78&#xA;               Q -144 116 -108 120&#xA;               Q -82 116 -86 96&#xA;               L -74 96&#xA;               L -84 112&#xA;               L -106 110&#xA;               L -94 92&#xA;               Q -102 56 -78 36 Z" fill="#8B5A2B" stroke="#D4AE58" stroke-width="2.2"></path>
      
      <path d="M -78 30 Q -118 50 -122 90" fill="none" stroke="#5C3A1C" stroke-width="1.2" stroke-dasharray="2 4"></path>

      
      <path d="M -82 18&#xA;               Q -82 -4 -50 -10&#xA;               L 40 -14&#xA;               Q 64 -14 72 -2&#xA;               L 84 26&#xA;               Q 50 42 -10 40&#xA;               Q -64 40 -82 30 Z" fill="#8B5A2B" stroke="#D4AE58" stroke-width="2.4"></path>
      
      <g stroke="#5C3A1C" stroke-width="1" fill="none" stroke-linecap="round">
        <line x1="-50" y1="32" x2="-30" y2="34"></line>
        <line x1="-20" y1="36" x2="0" y2="36"></line>
        <line x1="10" y1="36" x2="30" y2="36"></line>
        <line x1="40" y1="34" x2="58" y2="32"></line>
      </g>
      
      <g fill="#D4AE58" stroke="#5C3A1C" stroke-width="1">
        <polygon points="-50,-10 -42,-22 -34,-10"></polygon>
        <polygon points="-20,-12 -12,-24 -4,-12"></polygon>
        <polygon points="10,-14 18,-26 26,-14"></polygon>
      </g>

      
      <path d="M 50 -6&#xA;               Q 80 -18 96 -32&#xA;               L 116 -28&#xA;               Q 100 -10 70 6 Z" fill="#8B5A2B" stroke="#D4AE58" stroke-width="2.2"></path>

      <g transform="translate(108 -32)">
        
        <path d="M 0 0&#xA;                 L 28 -6&#xA;                 Q 44 2 36 18&#xA;                 L 8 22&#xA;                 L -2 30 L -10 18 Z" fill="#D4AE58" stroke="#5C3A1C" stroke-width="1.8"></path>
        
        <path d="M -4 -4 Q 16 -28 36 -22" fill="none" stroke="#D4AE58" stroke-width="2.6" stroke-linecap="round"></path>
        
        <path d="M -8 0 Q 4 -22 20 -24" fill="none" stroke="#B8893D" stroke-width="2" stroke-linecap="round"></path>
        
        <ellipse cx="12" cy="6" rx="3.8" ry="2.4" fill="#12100D" stroke="#5C3A1C" stroke-width="1"></ellipse>
        <circle cx="12" cy="6" r="1.2" fill="#D4AE58"></circle>
        
        <circle cx="30" cy="4" r="1.6" fill="#5C3A1C"></circle>
        
        <polygon points="16,22 22,32 26,22" fill="#D4AE58" stroke="#5C3A1C" stroke-width=".6"></polygon>
        
        <path d="M -2 26 Q -10 38 -22 36" fill="none" stroke="#D4AE58" stroke-width="1.6" stroke-linecap="round"></path>
      </g>

      
      <g fill="#D4AE58" stroke="#5C3A1C" stroke-width="1.2" stroke-linejoin="round">
        
        <path d="M 40 36 L 50 60 L 44 56 L 50 70 L 38 60 L 42 72 L 30 60 L 34 70 L 26 58 Z"></path>
        
        <path d="M -40 36 L -30 60 L -36 56 L -30 70 L -42 60 L -38 72 L -50 60 L -46 70 L -54 58 Z"></path>
      </g>

      
      <g fill="#D4AE58">
        <circle cx="158" cy="-22" r="2.4"></circle>
        <circle cx="168" cy="-14" r="1.8"></circle>
        <circle cx="172" cy="-4" r="1.2"></circle>
        <circle cx="162" cy="-32" r="1.6"></circle>
      </g>
    </g>
</svg>