<?xml version="1.0" encoding="UTF-8"?>
<svg xmlns="http://www.w3.org/2000/svg" viewBox="0 0 512 512" width="48" height="48" shape-rendering="geometricPrecision">
  <defs>
      
      <symbol id="frame" viewBox="0 0 512 512">
        <rect width="512" height="512" fill="#12100D"></rect>
        
        <circle cx="256" cy="256" r="244" fill="none" stroke="#5C3A1C" stroke-width="1"></circle>
        
        <circle cx="256" cy="256" r="232" fill="none" stroke="#D4AE58" stroke-width="2.2"></circle>
        
        <circle cx="256" cy="256" r="220" fill="none" stroke="#B8893D" stroke-width="1" stroke-dasharray="1.5 4"></circle>
        
        <g fill="#D4AE58">
          <rect x="254" y="6" width="4" height="14"></rect>
          <rect x="254" y="492" width="4" height="14"></rect>
          <rect x="6" y="254" width="14" height="4"></rect>
          <rect x="492" y="254" width="14" height="4"></rect>
        </g>
        
        <g fill="#B8893D">
          <circle cx="92" cy="92" r="2.4"></circle>
          <circle cx="420" cy="92" r="2.4"></circle>
          <circle cx="92" cy="420" r="2.4"></circle>
          <circle cx="420" cy="420" r="2.4"></circle>
        </g>
        
        <g fill="#D4AE58">
          <path d="M256 22 l2 6 6 2 -6 2 -2 6 -2 -6 -6 -2 6 -2z" opacity="0"></path>
        </g>
      </symbol>

      
      <pattern id="hatch" patternUnits="userSpaceOnUse" width="6" height="6" patternTransform="rotate(45)">
        <line x1="0" y1="0" x2="0" y2="6" stroke="#8B5A2B" stroke-width="1"></line>
      </pattern>
      <pattern id="hatchLight" patternUnits="userSpaceOnUse" width="5" height="5" patternTransform="rotate(45)">
        <line x1="0" y1="0" x2="0" y2="5" stroke="#B8893D" stroke-width=".8" opacity=".55"></line>
      </pattern>
      <pattern id="stipple" patternUnits="userSpaceOnUse" width="6" height="6">
        <circle cx="1" cy="1" r=".7" fill="#8B5A2B"></circle>
      </pattern>
    </defs>
  <use href="#frame"></use>
  <g>
      
      <rect x="128" y="170" width="256" height="180" rx="4" fill="#D4AE58" stroke="#5C3A1C" stroke-width="2.4"></rect>
      
      <path d="M128 170 L256 270 L384 170" fill="none" stroke="#5C3A1C" stroke-width="2.2"></path>
      <path d="M128 350 L226 256" fill="none" stroke="#5C3A1C" stroke-width="1.6"></path>
      <path d="M384 350 L286 256" fill="none" stroke="#5C3A1C" stroke-width="1.6"></path>
      
      <g transform="translate(256 280)">
        <circle r="38" fill="#8B5A2B" stroke="#5C3A1C" stroke-width="2.2"></circle>
        
        <path d="M-26 28 q-6 18 4 22 q8 -10 6 -22 z" fill="#8B5A2B" stroke="#5C3A1C" stroke-width="1.4"></path>
        <path d="M28 26 q10 14 0 26 q-12 -8 -8 -22 z" fill="#8B5A2B" stroke="#5C3A1C" stroke-width="1.4"></path>
        
        <circle r="26" fill="none" stroke="#D4AE58" stroke-width="1.4" stroke-dasharray="2 3"></circle>
        <path d="M-14 -14 L14 14 M14 -14 L-14 14" stroke="#D4AE58" stroke-width="3" stroke-linecap="round"></path>
        <circle r="4" fill="#D4AE58"></circle>
      </g>
      
      <g stroke="#D4AE58" stroke-width="1" fill="none">
        <rect x="138" y="180" width="14" height="14"></rect>
        <rect x="360" y="180" width="14" height="14"></rect>
      </g>
    </g>
</svg>