<svg xmlns="http://www.w3.org/2000/svg" viewBox="0 0 512 512" width="48" height="48">
  <rect width="512" height="512" fill="#12100D"></rect>

  
  <g fill="none" stroke="#D4AE58">
    <rect x="34" y="34" width="444" height="444" stroke-width="2.5"></rect>
    <rect x="46" y="46" width="420" height="420" stroke-width="0.8"></rect>
  </g>
  <g fill="#D4AE58" stroke="#D4AE58" stroke-width="1.4" stroke-linecap="round">
    <g transform="translate(60 60)"><path d="M 0 -7 L 7 0 L 0 7 L -7 0 Z"></path><path d="M -14 0 L -9 0 M 14 0 L 9 0 M 0 -14 L 0 -9 M 0 14 L 0 9" fill="none"></path></g>
    <g transform="translate(452 60)"><path d="M 0 -7 L 7 0 L 0 7 L -7 0 Z"></path><path d="M -14 0 L -9 0 M 14 0 L 9 0 M 0 -14 L 0 -9 M 0 14 L 0 9" fill="none"></path></g>
    <g transform="translate(60 452)"><path d="M 0 -7 L 7 0 L 0 7 L -7 0 Z"></path><path d="M -14 0 L -9 0 M 14 0 L 9 0 M 0 -14 L 0 -9 M 0 14 L 0 9" fill="none"></path></g>
    <g transform="translate(452 452)"><path d="M 0 -7 L 7 0 L 0 7 L -7 0 Z"></path><path d="M -14 0 L -9 0 M 14 0 L 9 0 M 0 -14 L 0 -9 M 0 14 L 0 9" fill="none"></path></g>
  </g>

  
  <g transform="translate(256 256)">
    
    <path d="M -18 -32&#xA;             C -54 -50 -108 -78 -104 -114&#xA;             C -100 -132 -76 -126 -64 -106&#xA;             C -50 -82 -38 -60 -26 -42 Z" fill="#D4AE58" stroke="#12100D" stroke-width="2.8" stroke-linejoin="round"></path>
    
    <path d="M -24 -38 C -44 -54 -76 -76 -86 -110" fill="none" stroke="#12100D" stroke-width="1.2" stroke-linecap="round"></path>
    
    <circle cx="-96" cy="-118" r="3" fill="#12100D"></circle>

    
    <path d="M 18 -32&#xA;             C 54 -50 108 -78 104 -114&#xA;             C 100 -132 76 -126 64 -106&#xA;             C 50 -82 38 -60 26 -42 Z" fill="#D4AE58" stroke="#12100D" stroke-width="2.8" stroke-linejoin="round"></path>
    <path d="M 24 -38 C 44 -54 76 -76 86 -110" fill="none" stroke="#12100D" stroke-width="1.2" stroke-linecap="round"></path>
    <circle cx="96" cy="-118" r="3" fill="#12100D"></circle>

    
    <path d="M -12 -32&#xA;             C -24 -78 -24 -120 0 -160&#xA;             C 24 -120 24 -78 12 -32 Z" fill="#D4AE58" stroke="#12100D" stroke-width="2.8" stroke-linejoin="round"></path>
    
    <path d="M 0 -36 L 0 -150" stroke="#12100D" stroke-width="1.4" fill="none" stroke-linecap="round"></path>
    
    <g stroke="#12100D" stroke-width="1" fill="none" stroke-linecap="round">
      <path d="M -14 -60 L -8 -54"></path>
      <path d="M -18 -90 L -10 -82"></path>
      <path d="M -18 -120 L -10 -112"></path>
      <path d="M 14 -60 L 8 -54"></path>
      <path d="M 18 -90 L 10 -82"></path>
      <path d="M 18 -120 L 10 -112"></path>
    </g>

    
    <path d="M -48 -32&#xA;             L 48 -32&#xA;             L 52 -16&#xA;             L 48 0&#xA;             L -48 0&#xA;             L -52 -16 Z" fill="#A88838" stroke="#12100D" stroke-width="2.6" stroke-linejoin="round"></path>
    
    <line x1="-46" y1="-22" x2="46" y2="-22" stroke="#12100D" stroke-width="1.2"></line>
    <line x1="-46" y1="-10" x2="46" y2="-10" stroke="#12100D" stroke-width="1.2"></line>
    
    <ellipse cx="0" cy="-16" rx="10" ry="8" fill="#D4AE58" stroke="#12100D" stroke-width="1.8"></ellipse>
    <circle cx="0" cy="-16" r="3.5" fill="#12100D"></circle>

    
    <path d="M -28 0&#xA;             Q -22 10 -22 22&#xA;             L -18 32&#xA;             L -10 48&#xA;             L 0 56&#xA;             L 10 48&#xA;             L 18 32&#xA;             L 22 22&#xA;             Q 22 10 28 0 Z" fill="#D4AE58" stroke="#12100D" stroke-width="2.6" stroke-linejoin="round"></path>
    
    <path d="M 0 8 L 0 50" stroke="#12100D" stroke-width="1.2" fill="none" stroke-linecap="round"></path>

    
    
    <path d="M -60 -10&#xA;             Q -78 -8 -82 6&#xA;             Q -80 18 -68 18&#xA;             Q -60 16 -62 8" fill="none" stroke="#D4AE58" stroke-width="3" stroke-linecap="round"></path>
    <path d="M -60 -10&#xA;             Q -78 -8 -82 6&#xA;             Q -80 18 -68 18&#xA;             Q -60 16 -62 8" fill="none" stroke="#12100D" stroke-width="1" stroke-linecap="round"></path>
    <circle cx="-68" cy="14" r="2" fill="#12100D"></circle>

    <path d="M 60 -10&#xA;             Q 78 -8 82 6&#xA;             Q 80 18 68 18&#xA;             Q 60 16 62 8" fill="none" stroke="#D4AE58" stroke-width="3" stroke-linecap="round"></path>
    <path d="M 60 -10&#xA;             Q 78 -8 82 6&#xA;             Q 80 18 68 18&#xA;             Q 60 16 62 8" fill="none" stroke="#12100D" stroke-width="1" stroke-linecap="round"></path>
    <circle cx="68" cy="14" r="2" fill="#12100D"></circle>

    
    <path d="M -8 56 Q -28 78 -50 80" fill="none" stroke="#D4AE58" stroke-width="2.6" stroke-linecap="round"></path>
    <path d="M -8 56 Q -28 78 -50 80" fill="none" stroke="#12100D" stroke-width="1" stroke-linecap="round"></path>
    <path d="M 8 56 Q 28 78 50 80" fill="none" stroke="#D4AE58" stroke-width="2.6" stroke-linecap="round"></path>
    <path d="M 8 56 Q 28 78 50 80" fill="none" stroke="#12100D" stroke-width="1" stroke-linecap="round"></path>
    
    <circle cx="-50" cy="80" r="3" fill="#7A5E28" stroke="#12100D" stroke-width="1"></circle>
    <circle cx="50" cy="80" r="3" fill="#7A5E28" stroke="#12100D" stroke-width="1"></circle>

    
    <g fill="#D4AE58" stroke="#12100D" stroke-width="0.9">
      <g transform="translate(-130 -150)"><path d="M 0 -6 L 1.5 -1.5 L 6 0 L 1.5 1.5 L 0 6 L -1.5 1.5 L -6 0 L -1.5 -1.5 Z"></path></g>
      <g transform="translate(130 -150)"><path d="M 0 -6 L 1.5 -1.5 L 6 0 L 1.5 1.5 L 0 6 L -1.5 1.5 L -6 0 L -1.5 -1.5 Z"></path></g>
      <g transform="translate(-150 110)"><path d="M 0 -5 L 1.2 -1.2 L 5 0 L 1.2 1.2 L 0 5 L -1.2 1.2 L -5 0 L -1.2 -1.2 Z"></path></g>
      <g transform="translate(150 110)"><path d="M 0 -5 L 1.2 -1.2 L 5 0 L 1.2 1.2 L 0 5 L -1.2 1.2 L -5 0 L -1.2 -1.2 Z"></path></g>
    </g>
  </g>
</svg>