<svg xmlns="http://www.w3.org/2000/svg" viewBox="0 0 512 512" width="48" height="48">
  <rect width="512" height="512" fill="#12100D"></rect>

  
  <g fill="none" stroke="#D4AE58">
    <rect x="34" y="34" width="444" height="444" stroke-width="2.5"></rect>
    <rect x="46" y="46" width="420" height="420" stroke-width="0.8"></rect>
  </g>
  <g fill="#D4AE58" stroke="#D4AE58" stroke-width="1.4" stroke-linecap="round">
    <g transform="translate(60 60)"><path d="M 0 -7 L 7 0 L 0 7 L -7 0 Z"></path><path d="M -14 0 L -9 0 M 14 0 L 9 0 M 0 -14 L 0 -9 M 0 14 L 0 9" fill="none"></path></g>
    <g transform="translate(452 60)"><path d="M 0 -7 L 7 0 L 0 7 L -7 0 Z"></path><path d="M -14 0 L -9 0 M 14 0 L 9 0 M 0 -14 L 0 -9 M 0 14 L 0 9" fill="none"></path></g>
    <g transform="translate(60 452)"><path d="M 0 -7 L 7 0 L 0 7 L -7 0 Z"></path><path d="M -14 0 L -9 0 M 14 0 L 9 0 M 0 -14 L 0 -9 M 0 14 L 0 9" fill="none"></path></g>
    <g transform="translate(452 452)"><path d="M 0 -7 L 7 0 L 0 7 L -7 0 Z"></path><path d="M -14 0 L -9 0 M 14 0 L 9 0 M 0 -14 L 0 -9 M 0 14 L 0 9" fill="none"></path></g>
  </g>

  
  
  <path d="M 150 92 L 370 92 L 374 100 L 146 100 Z" fill="#E8C878" stroke="#12100D" stroke-width="2" stroke-linejoin="round"></path>
  <g stroke="#A88838" stroke-width="0.8" stroke-linecap="round">
    <line x1="158" y1="94" x2="158" y2="100"></line>
    <line x1="172" y1="94" x2="172" y2="100"></line>
    <line x1="188" y1="94" x2="188" y2="100"></line>
    <line x1="204" y1="94" x2="204" y2="100"></line>
    <line x1="222" y1="94" x2="222" y2="100"></line>
    <line x1="240" y1="94" x2="240" y2="100"></line>
    <line x1="258" y1="94" x2="258" y2="100"></line>
    <line x1="276" y1="94" x2="276" y2="100"></line>
    <line x1="294" y1="94" x2="294" y2="100"></line>
    <line x1="312" y1="94" x2="312" y2="100"></line>
    <line x1="330" y1="94" x2="330" y2="100"></line>
    <line x1="346" y1="94" x2="346" y2="100"></line>
    <line x1="362" y1="94" x2="362" y2="100"></line>
  </g>

  
  <path d="M 146 100 L 174 100 L 174 432 L 146 432 Z" fill="#A88838" stroke="#12100D" stroke-width="2.5" stroke-linejoin="round"></path>
  
  <g fill="#7A5E28" stroke="#12100D" stroke-width="1.4">
    <rect x="146" y="150" width="28" height="10"></rect>
    <rect x="146" y="245" width="28" height="10"></rect>
    <rect x="146" y="340" width="28" height="10"></rect>
  </g>
  <g stroke="#E8C878" stroke-width="1" stroke-linecap="round">
    <line x1="150" y1="152" x2="172" y2="152"></line>
    <line x1="150" y1="247" x2="172" y2="247"></line>
    <line x1="150" y1="342" x2="172" y2="342"></line>
  </g>

  
  <path d="M 174 100 L 374 100 L 374 432 L 174 432 Z" fill="#D4AE58" stroke="#12100D" stroke-width="2.5" stroke-linejoin="round"></path>
  
  <rect x="194" y="120" width="160" height="292" fill="none" stroke="#12100D" stroke-width="2"></rect>
  <rect x="200" y="126" width="148" height="280" fill="none" stroke="#12100D" stroke-width="0.8"></rect>

  
  <g fill="#7A5E28" stroke="#12100D" stroke-width="1">
    <path d="M 194 120 L 214 120 L 194 140 Z"></path>
    <path d="M 354 120 L 334 120 L 354 140 Z"></path>
    <path d="M 194 412 L 214 412 L 194 392 Z"></path>
    <path d="M 354 412 L 334 412 L 354 392 Z"></path>
  </g>

  
  <g transform="translate(274 266)">
    
    <g fill="none" stroke="#12100D" stroke-width="0.9" opacity="0.7">
      <circle r="92"></circle>
      <circle r="78"></circle>
    </g>
    
    <g stroke="#12100D" stroke-width="1.2" stroke-linecap="round">
      <line x1="0" y1="-104" x2="0" y2="-94"></line>
      <line x1="0" y1="104" x2="0" y2="94"></line>
      <line x1="-104" y1="0" x2="-94" y2="0"></line>
      <line x1="104" y1="0" x2="94" y2="0"></line>
      <g transform="rotate(45)"><line x1="0" y1="-104" x2="0" y2="-94"></line></g>
      <g transform="rotate(135)"><line x1="0" y1="-104" x2="0" y2="-94"></line></g>
      <g transform="rotate(225)"><line x1="0" y1="-104" x2="0" y2="-94"></line></g>
      <g transform="rotate(315)"><line x1="0" y1="-104" x2="0" y2="-94"></line></g>
    </g>

    
    <path d="M 22 -110&#xA;             L -40 -10&#xA;             L 0 -10&#xA;             L -22 110&#xA;             L 40 0&#xA;             L 4 0 Z" fill="#7A5E28" stroke="#12100D" stroke-width="3" stroke-linejoin="round"></path>
    
    <path d="M 18 -92&#xA;             L -28 -16&#xA;             L -10 -14&#xA;             L -18 88&#xA;             L 26 4&#xA;             L 8 4 Z" fill="#D4AE58" stroke="none"></path>
    
    <path d="M 14 -78 L -16 -20 L -2 -18 L -10 70 L 16 12 L 6 12 Z" fill="#E8C878" stroke="none"></path>

    
    <g fill="#7A5E28" stroke="#12100D" stroke-width="1.4">
      <circle cx="22" cy="-114" r="4"></circle>
      <circle cx="-22" cy="114" r="4"></circle>
    </g>
  </g>

  
  <g fill="#7A5E28" stroke="#12100D" stroke-width="0.8">
    <circle cx="274" cy="142" r="3"></circle>
    <circle cx="274" cy="390" r="3"></circle>
  </g>
</svg>