<svg xmlns="http://www.w3.org/2000/svg" viewBox="0 0 512 512" width="48" height="48">
  
  <rect width="512" height="512" fill="#12100D"></rect>

  
  <g fill="none" stroke="#D4AE58">
    <rect x="34" y="34" width="444" height="444" stroke-width="2.5"></rect>
    <rect x="46" y="46" width="420" height="420" stroke-width="0.8"></rect>
  </g>

  
  <g fill="#D4AE58" stroke="#D4AE58" stroke-width="1.4" stroke-linecap="round">
    <g transform="translate(60 60)">
      <path d="M 0 -7 L 7 0 L 0 7 L -7 0 Z"></path>
      <path d="M -14 0 L -9 0 M 14 0 L 9 0 M 0 -14 L 0 -9 M 0 14 L 0 9" fill="none"></path>
    </g>
    <g transform="translate(452 60)">
      <path d="M 0 -7 L 7 0 L 0 7 L -7 0 Z"></path>
      <path d="M -14 0 L -9 0 M 14 0 L 9 0 M 0 -14 L 0 -9 M 0 14 L 0 9" fill="none"></path>
    </g>
    <g transform="translate(60 452)">
      <path d="M 0 -7 L 7 0 L 0 7 L -7 0 Z"></path>
      <path d="M -14 0 L -9 0 M 14 0 L 9 0 M 0 -14 L 0 -9 M 0 14 L 0 9" fill="none"></path>
    </g>
    <g transform="translate(452 452)">
      <path d="M 0 -7 L 7 0 L 0 7 L -7 0 Z"></path>
      <path d="M -14 0 L -9 0 M 14 0 L 9 0 M 0 -14 L 0 -9 M 0 14 L 0 9" fill="none"></path>
    </g>
  </g>

  
  <g>
    
    
    <path d="M 156 102 Q 256 96 356 102 L 356 122 Q 256 116 156 122 Z" fill="#A88838" stroke="#D4AE58" stroke-width="2"></path>

    
    <ellipse cx="256" cy="124" rx="116" ry="22" fill="#D4AE58" stroke="#D4AE58" stroke-width="2.5"></ellipse>

    
    <ellipse cx="256" cy="124" rx="100" ry="16" fill="#A88838" stroke="#12100D" stroke-width="1.5"></ellipse>
    <ellipse cx="256" cy="124" rx="80" ry="11" fill="#D4AE58" stroke="#12100D" stroke-width="1.2"></ellipse>
    <ellipse cx="256" cy="124" rx="58" ry="6.5" fill="#A88838" stroke="#12100D" stroke-width="1"></ellipse>
    <ellipse cx="256" cy="124" rx="34" ry="3" fill="#7A5E28" stroke="#12100D" stroke-width="0.8"></ellipse>

    
    <g stroke="#12100D" stroke-width="0.9" fill="none" stroke-linecap="round">
      <line x1="160" y1="118" x2="160" y2="130"></line>
      <line x1="172" y1="115" x2="172" y2="133"></line>
      <line x1="186" y1="113" x2="186" y2="135"></line>
      <line x1="328" y1="113" x2="328" y2="135"></line>
      <line x1="342" y1="115" x2="342" y2="133"></line>
      <line x1="354" y1="118" x2="354" y2="130"></line>
    </g>

    
    
    <path d="M 144 124&#xA;             Q 142 240 148 360&#xA;             L 148 380&#xA;             Q 256 372 364 380&#xA;             L 364 360&#xA;             Q 370 240 368 124&#xA;             Z" fill="#E8C878" stroke="#D4AE58" stroke-width="2.5" stroke-linejoin="round"></path>

    
    <path d="M 144 124 Q 142 240 148 360 L 148 380 L 164 380 Q 158 240 162 124 Z" fill="#D4AE58" opacity="0.55"></path>
    
    <path d="M 368 124 Q 370 240 364 360 L 364 380 L 348 380 Q 354 240 350 124 Z" fill="#D4AE58" opacity="0.55"></path>

    
    <g stroke="#7A5E28" stroke-width="2.6" stroke-linecap="round" fill="none">
      
      <rect x="170" y="158" width="20" height="20" fill="#7A5E28" stroke-width="0"></rect>
      <path d="M 170 158 L 190 158 L 190 178 L 170 178 Z" fill="none" stroke="#12100D" stroke-width="1.2"></path>

      <line x1="200" y1="168" x2="340" y2="168"></line>
      <line x1="200" y1="184" x2="310" y2="184"></line>

      <line x1="170" y1="204" x2="342" y2="204"></line>
      <line x1="170" y1="220" x2="290" y2="220"></line>
      <line x1="170" y1="236" x2="340" y2="236"></line>
      <line x1="170" y1="252" x2="320" y2="252"></line>
      <line x1="170" y1="268" x2="342" y2="268"></line>
      <line x1="170" y1="284" x2="270" y2="284"></line>
      <line x1="170" y1="300" x2="340" y2="300"></line>
      <line x1="170" y1="316" x2="310" y2="316"></line>
      <line x1="170" y1="332" x2="338" y2="332"></line>
      <line x1="170" y1="348" x2="260" y2="348"></line>
    </g>
  </g>

  
  
  <g>
    
    <g>
      <path d="M 256 388&#xA;               L 240 384&#xA;               L 232 378&#xA;               L 220 374&#xA;               L 208 380&#xA;               L 200 390&#xA;               L 196 404&#xA;               L 198 420&#xA;               L 206 434&#xA;               L 220 442&#xA;               L 236 444&#xA;               L 248 440&#xA;               L 256 432&#xA;               L 252 420&#xA;               L 258 408&#xA;               L 252 396 Z" fill="#D4AE58" stroke="#12100D" stroke-width="2.4" stroke-linejoin="round"></path>
      
      <g stroke="#12100D" stroke-width="1.6" fill="none" stroke-linecap="round">
        
        <path d="M 224 396 L 226 410 L 214 416"></path>
        <path d="M 226 410 L 240 414"></path>
        
        <path d="M 208 396 Q 200 410 208 426"></path>
      </g>
      
      <path d="M 206 384 Q 192 400 200 422" stroke="#E8C878" stroke-width="2" fill="none"></path>
    </g>

    
    <g transform="translate(8 4) rotate(8 290 410)">
      <path d="M 270 384&#xA;               L 282 376&#xA;               L 296 374&#xA;               L 308 380&#xA;               L 316 392&#xA;               L 318 408&#xA;               L 312 422&#xA;               L 300 432&#xA;               L 284 434&#xA;               L 272 428&#xA;               L 264 416&#xA;               L 270 404&#xA;               L 264 392 Z" fill="#D4AE58" stroke="#12100D" stroke-width="2.4" stroke-linejoin="round"></path>
      
      <g stroke="#12100D" stroke-width="1.6" fill="none" stroke-linecap="round">
        <path d="M 298 396 L 296 410 L 308 408"></path>
        <path d="M 296 410 L 286 416"></path>
        <path d="M 312 400 Q 318 412 310 424"></path>
      </g>
      <path d="M 308 384 Q 320 400 312 422" stroke="#E8C878" stroke-width="2" fill="none"></path>
    </g>

    
    <path d="M 252 374&#xA;             L 256 386&#xA;             L 250 394&#xA;             L 258 406&#xA;             L 252 418&#xA;             L 260 430&#xA;             L 254 444" stroke="#12100D" stroke-width="3.5" fill="none" stroke-linecap="round" stroke-linejoin="round"></path>
  </g>

  
  <g fill="#D4AE58" stroke="#12100D" stroke-width="1.2">
    <ellipse cx="218" cy="452" rx="4" ry="6"></ellipse>
    <ellipse cx="304" cy="454" rx="3.4" ry="5"></ellipse>
  </g>
</svg>