<svg xmlns="http://www.w3.org/2000/svg" viewBox="0 0 512 512" width="48" height="48">
  <rect width="512" height="512" fill="#12100D"></rect>

  
  <g fill="none" stroke="#D4AE58">
    <rect x="34" y="34" width="444" height="444" stroke-width="2.5"></rect>
    <rect x="46" y="46" width="420" height="420" stroke-width="0.8"></rect>
  </g>
  <g fill="#D4AE58" stroke="#D4AE58" stroke-width="1.4" stroke-linecap="round">
    <g transform="translate(60 60)"><path d="M 0 -7 L 7 0 L 0 7 L -7 0 Z"></path><path d="M -14 0 L -9 0 M 14 0 L 9 0 M 0 -14 L 0 -9 M 0 14 L 0 9" fill="none"></path></g>
    <g transform="translate(452 60)"><path d="M 0 -7 L 7 0 L 0 7 L -7 0 Z"></path><path d="M -14 0 L -9 0 M 14 0 L 9 0 M 0 -14 L 0 -9 M 0 14 L 0 9" fill="none"></path></g>
    <g transform="translate(60 452)"><path d="M 0 -7 L 7 0 L 0 7 L -7 0 Z"></path><path d="M -14 0 L -9 0 M 14 0 L 9 0 M 0 -14 L 0 -9 M 0 14 L 0 9" fill="none"></path></g>
    <g transform="translate(452 452)"><path d="M 0 -7 L 7 0 L 0 7 L -7 0 Z"></path><path d="M -14 0 L -9 0 M 14 0 L 9 0 M 0 -14 L 0 -9 M 0 14 L 0 9" fill="none"></path></g>
  </g>

  
  
  <g>
    
    <path d="M 402 164 L 402 236 L 340 272 L 340 200 Z" fill="#7A5E28" stroke="#12100D" stroke-width="2.4" stroke-linejoin="round"></path>
    
    <path d="M 397 172 L 397 233 L 345 264 L 345 203 Z" fill="none" stroke="#12100D" stroke-width="1" stroke-linejoin="round"></path>

    
    <path d="M 278 164 L 340 200 L 340 272 L 278 236 Z" fill="#A88838" stroke="#12100D" stroke-width="2.4" stroke-linejoin="round"></path>
    
    <path d="M 283 172 L 335 203 L 335 264 L 283 233 Z" fill="none" stroke="#12100D" stroke-width="1" stroke-linejoin="round"></path>

    
    <path d="M 340 128 L 402 164 L 340 200 L 278 164 Z" fill="#D4AE58" stroke="#12100D" stroke-width="2.4" stroke-linejoin="round"></path>
    
    <path d="M 340 134 L 393 164 L 340 195 L 287 164 Z" fill="none" stroke="#12100D" stroke-width="1" stroke-linejoin="round"></path>

    
    <g fill="#12100D">
      <circle cx="340" cy="128" r="1.6"></circle>
      <circle cx="402" cy="164" r="1.6"></circle>
      <circle cx="278" cy="164" r="1.6"></circle>
      <circle cx="340" cy="200" r="1.6"></circle>
      <circle cx="402" cy="236" r="1.6"></circle>
      <circle cx="278" cy="236" r="1.6"></circle>
      <circle cx="340" cy="272" r="1.6"></circle>
    </g>

    
    
    <g transform="translate(340 164)" stroke="#12100D" stroke-width="2.4" fill="none" stroke-linecap="round">
      <path d="M 0 0&#xA;               A 4 4 0 0 1 4 -4&#xA;               A 7 7 0 0 1 -3 -7&#xA;               A 10 10 0 0 1 -10 0&#xA;               A 12 12 0 0 1 0 11"></path>
    </g>
    
    <g transform="translate(309 218)">
      <path d="M 0 -10 L 9 6 L -9 6 Z" fill="none" stroke="#12100D" stroke-width="2.4" stroke-linejoin="round"></path>
      <circle r="2.2" fill="#12100D"></circle>
    </g>
    
    <g transform="translate(371 218)">
      <circle r="4" fill="#12100D"></circle>
      <g stroke="#12100D" stroke-width="1.6" stroke-linecap="round">
        <line x1="0" y1="-10" x2="0" y2="-6"></line>
        <line x1="0" y1="10" x2="0" y2="6"></line>
        <line x1="-10" y1="0" x2="-6" y2="0"></line>
        <line x1="10" y1="0" x2="6" y2="0"></line>
        <line x1="-7" y1="-7" x2="-4.5" y2="-4.5"></line>
        <line x1="7" y1="-7" x2="4.5" y2="-4.5"></line>
        <line x1="-7" y1="7" x2="-4.5" y2="4.5"></line>
        <line x1="7" y1="7" x2="4.5" y2="4.5"></line>
      </g>
    </g>
  </g>

  
  
  <g>
    
    <path d="M 280 244 L 280 336 L 200 382 L 200 290 Z" fill="#7A5E28" stroke="#12100D" stroke-width="2.6" stroke-linejoin="round"></path>
    
    <path d="M 274 254 L 274 332 L 206 372 L 206 294 Z" fill="none" stroke="#12100D" stroke-width="1.2" stroke-linejoin="round"></path>

    
    <path d="M 120 244 L 200 290 L 200 382 L 120 336 Z" fill="#A88838" stroke="#12100D" stroke-width="2.6" stroke-linejoin="round"></path>
    
    <path d="M 126 254 L 194 294 L 194 372 L 126 332 Z" fill="none" stroke="#12100D" stroke-width="1.2" stroke-linejoin="round"></path>

    
    <path d="M 200 198 L 280 244 L 200 290 L 120 244 Z" fill="#D4AE58" stroke="#12100D" stroke-width="2.6" stroke-linejoin="round"></path>
    
    <path d="M 200 206 L 268 244 L 200 282 L 132 244 Z" fill="none" stroke="#12100D" stroke-width="1.2" stroke-linejoin="round"></path>

    
    <g fill="#12100D">
      <circle cx="200" cy="198" r="2"></circle>
      <circle cx="280" cy="244" r="2"></circle>
      <circle cx="120" cy="244" r="2"></circle>
      <circle cx="200" cy="290" r="2"></circle>
      <circle cx="280" cy="336" r="2"></circle>
      <circle cx="120" cy="336" r="2"></circle>
      <circle cx="200" cy="382" r="2"></circle>
    </g>

    
    
    <g transform="translate(200 244)" stroke="#12100D" stroke-width="2.6" fill="none" stroke-linejoin="round" stroke-linecap="round">
      <path d="M 0 -16 L 14 8 L -14 8 Z"></path>
      <path d="M 0 16 L 14 -8 L -14 -8 Z"></path>
      <circle r="2.2" fill="#12100D"></circle>
    </g>
    
    <g transform="translate(160 313)">
      <path d="M -16 0 C -10 -10 10 -10 16 0 C 10 10 -10 10 -16 0 Z" fill="#D4AE58" stroke="#12100D" stroke-width="2.4" stroke-linejoin="round"></path>
      <circle r="5" fill="#12100D"></circle>
      <circle r="2" fill="#A88838"></circle>
      
      <g stroke="#12100D" stroke-width="1.2" stroke-linecap="round">
        <line x1="-10" y1="-8" x2="-10" y2="-5"></line>
        <line x1="0" y1="-10" x2="0" y2="-7"></line>
        <line x1="10" y1="-8" x2="10" y2="-5"></line>
      </g>
    </g>
    
    <g transform="translate(240 313)">
      <path d="M 6 -14&#xA;               A 14 14 0 1 0 6 14&#xA;               A 10 10 0 1 1 6 -14 Z" fill="#12100D" stroke="#12100D" stroke-width="2" stroke-linejoin="round"></path>
      
      <g transform="translate(-10 0)" stroke="#12100D" stroke-width="1.2" fill="#12100D" stroke-linejoin="round">
        <path d="M 0 -4 L 1.5 -1 L 4 0 L 1.5 1 L 0 4 L -1.5 1 L -4 0 L -1.5 -1 Z"></path>
      </g>
    </g>
  </g>

  
  <g fill="#D4AE58" stroke="#12100D" stroke-width="0.8">
    <g transform="translate(290 120)">
      <path d="M 0 -6 L 1.5 -1.5 L 6 0 L 1.5 1.5 L 0 6 L -1.5 1.5 L -6 0 L -1.5 -1.5 Z"></path>
    </g>
    <g transform="translate(420 300)">
      <path d="M 0 -5 L 1.2 -1.2 L 5 0 L 1.2 1.2 L 0 5 L -1.2 1.2 L -5 0 L -1.2 -1.2 Z"></path>
    </g>
    <g transform="translate(100 400)">
      <path d="M 0 -4 L 1 -1 L 4 0 L 1 1 L 0 4 L -1 1 L -4 0 L -1 -1 Z"></path>
    </g>
  </g>
</svg>