<svg xmlns="http://www.w3.org/2000/svg" viewBox="0 0 512 512" width="48" height="48">
  <rect width="512" height="512" fill="#12100D"></rect>

  
  <g fill="none" stroke="#D4AE58">
    <rect x="34" y="34" width="444" height="444" stroke-width="2.5"></rect>
    <rect x="46" y="46" width="420" height="420" stroke-width="0.8"></rect>
  </g>
  <g fill="#D4AE58" stroke="#D4AE58" stroke-width="1.4" stroke-linecap="round">
    <g transform="translate(60 60)"><path d="M 0 -7 L 7 0 L 0 7 L -7 0 Z"></path><path d="M -14 0 L -9 0 M 14 0 L 9 0 M 0 -14 L 0 -9 M 0 14 L 0 9" fill="none"></path></g>
    <g transform="translate(452 60)"><path d="M 0 -7 L 7 0 L 0 7 L -7 0 Z"></path><path d="M -14 0 L -9 0 M 14 0 L 9 0 M 0 -14 L 0 -9 M 0 14 L 0 9" fill="none"></path></g>
    <g transform="translate(60 452)"><path d="M 0 -7 L 7 0 L 0 7 L -7 0 Z"></path><path d="M -14 0 L -9 0 M 14 0 L 9 0 M 0 -14 L 0 -9 M 0 14 L 0 9" fill="none"></path></g>
    <g transform="translate(452 452)"><path d="M 0 -7 L 7 0 L 0 7 L -7 0 Z"></path><path d="M -14 0 L -9 0 M 14 0 L 9 0 M 0 -14 L 0 -9 M 0 14 L 0 9" fill="none"></path></g>
  </g>

  
  <defs>
    <g id="sword">
      
      <path d="M -10 -90&#xA;               L 10 -90&#xA;               L 8 168&#xA;               L 0 188&#xA;               L -8 168 Z" fill="#D4AE58" stroke="#12100D" stroke-width="2.4" stroke-linejoin="round"></path>
      
      <line x1="0" y1="-86" x2="0" y2="160" stroke="#12100D" stroke-width="1.4"></line>
      
      <line x1="-7" y1="-86" x2="-7" y2="158" stroke="#E8C878" stroke-width="0.9"></line>
      <line x1="7" y1="-86" x2="7" y2="158" stroke="#E8C878" stroke-width="0.9"></line>

      
      <path d="M -52 -116&#xA;               L 52 -116&#xA;               L 56 -106&#xA;               L 52 -92&#xA;               L -52 -92&#xA;               L -56 -106 Z" fill="#A88838" stroke="#12100D" stroke-width="2.4" stroke-linejoin="round"></path>
      
      <g fill="#7A5E28" stroke="#12100D" stroke-width="2">
        <circle cx="-54" cy="-104" r="9"></circle>
        <circle cx="54" cy="-104" r="9"></circle>
      </g>
      
      <rect x="-14" y="-122" width="28" height="10" fill="#D4AE58" stroke="#12100D" stroke-width="1.8"></rect>
      <circle cx="0" cy="-117" r="3" fill="#12100D"></circle>
      
      <line x1="-44" y1="-104" x2="44" y2="-104" stroke="#12100D" stroke-width="1" stroke-linecap="round"></line>

      
      <path d="M -8 -122&#xA;               L 8 -122&#xA;               L 8 -174&#xA;               L -8 -174 Z" fill="#7A5E28" stroke="#12100D" stroke-width="2.2" stroke-linejoin="round"></path>
      
      <g stroke="#12100D" stroke-width="1.4" stroke-linecap="round">
        <line x1="-8" y1="-128" x2="8" y2="-132"></line>
        <line x1="-8" y1="-138" x2="8" y2="-142"></line>
        <line x1="-8" y1="-148" x2="8" y2="-152"></line>
        <line x1="-8" y1="-158" x2="8" y2="-162"></line>
        <line x1="-8" y1="-168" x2="8" y2="-172"></line>
      </g>

      
      <circle cx="0" cy="-184" r="16" fill="#D4AE58" stroke="#12100D" stroke-width="2.4"></circle>
      <circle cx="0" cy="-184" r="9" fill="#7A5E28" stroke="#12100D" stroke-width="1.4"></circle>
      
      <g stroke="#D4AE58" stroke-width="1.8" stroke-linecap="round">
        <line x1="0" y1="-190" x2="0" y2="-178"></line>
        <line x1="-6" y1="-184" x2="6" y2="-184"></line>
      </g>
      
      <circle cx="0" cy="-200" r="3.5" fill="#7A5E28" stroke="#12100D" stroke-width="1"></circle>
    </g>
  </defs>

  
  
  <use href="#sword" transform="translate(256 256) rotate(-42)"></use>
  
  <use href="#sword" transform="translate(256 256) rotate(42)"></use>

  
  <g fill="#7A5E28" stroke="#12100D" stroke-width="0.8" transform="translate(256 256)">
    <circle cx="0" cy="-130" r="3.5"></circle>
    <circle cx="0" cy="130" r="3.5"></circle>
    <circle cx="-130" cy="0" r="3.5"></circle>
    <circle cx="130" cy="0" r="3.5"></circle>
  </g>
</svg>