<svg xmlns="http://www.w3.org/2000/svg" viewBox="0 0 512 512" width="48" height="48">
  <rect width="512" height="512" fill="#12100D"></rect>

  
  <g fill="none" stroke="#D4AE58">
    <rect x="34" y="34" width="444" height="444" stroke-width="2.5"></rect>
    <rect x="46" y="46" width="420" height="420" stroke-width="0.8"></rect>
  </g>
  <g fill="#D4AE58" stroke="#D4AE58" stroke-width="1.4" stroke-linecap="round">
    <g transform="translate(60 60)"><path d="M 0 -7 L 7 0 L 0 7 L -7 0 Z"></path><path d="M -14 0 L -9 0 M 14 0 L 9 0 M 0 -14 L 0 -9 M 0 14 L 0 9" fill="none"></path></g>
    <g transform="translate(452 60)"><path d="M 0 -7 L 7 0 L 0 7 L -7 0 Z"></path><path d="M -14 0 L -9 0 M 14 0 L 9 0 M 0 -14 L 0 -9 M 0 14 L 0 9" fill="none"></path></g>
    <g transform="translate(60 452)"><path d="M 0 -7 L 7 0 L 0 7 L -7 0 Z"></path><path d="M -14 0 L -9 0 M 14 0 L 9 0 M 0 -14 L 0 -9 M 0 14 L 0 9" fill="none"></path></g>
    <g transform="translate(452 452)"><path d="M 0 -7 L 7 0 L 0 7 L -7 0 Z"></path><path d="M -14 0 L -9 0 M 14 0 L 9 0 M 0 -14 L 0 -9 M 0 14 L 0 9" fill="none"></path></g>
  </g>

  
  
  <g transform="rotate(-6 256 256)">
    
    <path d="M 96 130&#xA;             L 108 122&#xA;             L 410 116&#xA;             L 422 130&#xA;             L 416 380&#xA;             L 408 390&#xA;             L 104 396&#xA;             L 90 384&#xA;             L 94 142 Z" fill="#D4AE58" stroke="#12100D" stroke-width="2.5" stroke-linejoin="round"></path>

    
    <rect x="110" y="138" width="292" height="244" fill="none" stroke="#12100D" stroke-width="1.4"></rect>

    
    <g stroke="#12100D" stroke-width="1.1" stroke-dasharray="4 4" opacity="0.85" stroke-linecap="round" fill="none">
      <line x1="256" y1="138" x2="256" y2="382"></line>
      <line x1="110" y1="260" x2="402" y2="260"></line>
    </g>

    
    <g fill="#A88838" opacity="0.55">
      <rect x="254" y="138" width="4" height="244"></rect>
      <rect x="110" y="258" width="292" height="4"></rect>
    </g>

    
    
    <path d="M 152 138&#xA;             C 178 180 144 220 168 256&#xA;             C 192 290 152 320 174 360&#xA;             C 184 376 178 382 178 382" fill="none" stroke="#12100D" stroke-width="2.2" stroke-linecap="round"></path>

    
    <g stroke="#7A5E28" stroke-width="1.4" fill="none" stroke-linecap="round">
      <path d="M 122 168 Q 134 162 146 168"></path>
      <path d="M 124 196 Q 136 190 148 196"></path>
      <path d="M 124 230 Q 134 224 144 230"></path>
      <path d="M 122 270 Q 134 264 146 270"></path>
      <path d="M 124 304 Q 136 298 148 304"></path>
      <path d="M 124 340 Q 136 334 148 340"></path>
      <path d="M 126 366 Q 138 360 150 366"></path>
    </g>

    
    <g fill="none" stroke="#12100D" stroke-width="1.8" stroke-linejoin="round" stroke-linecap="round">
      <path d="M 256 226 L 274 192 L 290 226 Z"></path>
      <path d="M 282 226 L 304 184 L 326 226 Z"></path>
      <path d="M 314 226 L 330 196 L 346 226 Z"></path>
    </g>
    
    <g stroke="#12100D" stroke-width="0.9" stroke-linecap="round">
      <line x1="274" y1="200" x2="282" y2="218"></line>
      <line x1="304" y1="194" x2="316" y2="218"></line>
      <line x1="330" y1="206" x2="338" y2="222"></line>
    </g>

    
    <g fill="#7A5E28" stroke="#12100D" stroke-width="1">
      <circle cx="300" cy="340" r="5"></circle>
      <line x1="300" y1="345" x2="300" y2="354" stroke="#12100D" stroke-width="1.2"></line>
      <circle cx="320" cy="328" r="4.5"></circle>
      <line x1="320" y1="332" x2="320" y2="340" stroke="#12100D" stroke-width="1.2"></line>
      <circle cx="338" cy="346" r="5"></circle>
      <line x1="338" y1="351" x2="338" y2="360" stroke="#12100D" stroke-width="1.2"></line>
      <circle cx="356" cy="332" r="4"></circle>
      <line x1="356" y1="336" x2="356" y2="344" stroke="#12100D" stroke-width="1.2"></line>
    </g>

    
    <g transform="translate(372 174)">
      <circle r="22" fill="none" stroke="#12100D" stroke-width="1.2"></circle>
      <circle r="14" fill="none" stroke="#12100D" stroke-width="0.8"></circle>
      
      <path d="M 0 -22 L 4 0 L 0 22 L -4 0 Z" fill="#7A5E28" stroke="#12100D" stroke-width="1.2"></path>
      <path d="M -22 0 L 0 -4 L 22 0 L 0 4 Z" fill="#D4AE58" stroke="#12100D" stroke-width="1.2"></path>
      
      <path d="M 0 -28 L -4 -22 L 4 -22 Z" fill="#7A5E28" stroke="#12100D" stroke-width="1"></path>
      
      <g fill="#A88838" stroke="#12100D" stroke-width="0.8">
        <path d="M -15 -15 L -2 -2 L -16 -2 Z"></path>
        <path d="M 15 -15 L 2 -2 L 16 -2 Z"></path>
        <path d="M -15 15 L -2 2 L -16 2 Z"></path>
        <path d="M 15 15 L 2 2 L 16 2 Z"></path>
      </g>
      <circle r="3" fill="#12100D"></circle>
    </g>

    
    <path d="M 200 200&#xA;             Q 210 240 200 270&#xA;             Q 196 300 208 320" fill="none" stroke="#12100D" stroke-width="2.2" stroke-linecap="round" stroke-dasharray="2 8"></path>

    
    <g transform="translate(208 322)">
      
      <circle r="32" fill="none" stroke="#12100D" stroke-width="2.4"></circle>
      <circle r="32" fill="#D4AE58" opacity="0.0"></circle>
      
      <g stroke="#12100D" stroke-width="1.6" stroke-linecap="round">
        <line x1="0" y1="-38" x2="0" y2="-32"></line>
        <line x1="0" y1="38" x2="0" y2="32"></line>
        <line x1="-38" y1="0" x2="-32" y2="0"></line>
        <line x1="38" y1="0" x2="32" y2="0"></line>
        <line x1="-27" y1="-27" x2="-22" y2="-22"></line>
        <line x1="27" y1="-27" x2="22" y2="-22"></line>
        <line x1="-27" y1="27" x2="-22" y2="22"></line>
        <line x1="27" y1="27" x2="22" y2="22"></line>
      </g>
      
      <g stroke="#12100D" stroke-width="9" stroke-linecap="round" fill="none">
        <line x1="-18" y1="-18" x2="18" y2="18"></line>
        <line x1="18" y1="-18" x2="-18" y2="18"></line>
      </g>
      
      <g stroke="#E8C878" stroke-width="2" stroke-linecap="round" fill="none">
        <line x1="-15" y1="-15" x2="15" y2="15"></line>
        <line x1="15" y1="-15" x2="-15" y2="15"></line>
      </g>
    </g>
  </g>
</svg>