<svg xmlns="http://www.w3.org/2000/svg" viewBox="0 0 512 512" width="48" height="48">
  <rect width="512" height="512" fill="#12100D"></rect>

  
  <g fill="none" stroke="#D4AE58">
    <rect x="34" y="34" width="444" height="444" stroke-width="2.5"></rect>
    <rect x="46" y="46" width="420" height="420" stroke-width="0.8"></rect>
  </g>
  <g fill="#D4AE58" stroke="#D4AE58" stroke-width="1.4" stroke-linecap="round">
    <g transform="translate(60 60)"><path d="M 0 -7 L 7 0 L 0 7 L -7 0 Z"></path><path d="M -14 0 L -9 0 M 14 0 L 9 0 M 0 -14 L 0 -9 M 0 14 L 0 9" fill="none"></path></g>
    <g transform="translate(452 60)"><path d="M 0 -7 L 7 0 L 0 7 L -7 0 Z"></path><path d="M -14 0 L -9 0 M 14 0 L 9 0 M 0 -14 L 0 -9 M 0 14 L 0 9" fill="none"></path></g>
    <g transform="translate(60 452)"><path d="M 0 -7 L 7 0 L 0 7 L -7 0 Z"></path><path d="M -14 0 L -9 0 M 14 0 L 9 0 M 0 -14 L 0 -9 M 0 14 L 0 9" fill="none"></path></g>
    <g transform="translate(452 452)"><path d="M 0 -7 L 7 0 L 0 7 L -7 0 Z"></path><path d="M -14 0 L -9 0 M 14 0 L 9 0 M 0 -14 L 0 -9 M 0 14 L 0 9" fill="none"></path></g>
  </g>

  
  
  <g transform="rotate(38 256 256)">
    
    <path d="M 256 80&#xA;             C 218 130 208 220 246 314&#xA;             C 274 250 296 150 256 80 Z" fill="#E8C878" stroke="#12100D" stroke-width="2.8" stroke-linejoin="round"></path>
    
    <path d="M 256 92&#xA;             C 232 144 230 218 252 304&#xA;             L 252 92 Z" fill="#D4AE58"></path>

    
    <path d="M 252 92 L 248 314" stroke="#12100D" stroke-width="2.2" fill="none" stroke-linecap="round"></path>

    
    <g stroke="#12100D" stroke-width="1.4" fill="none" stroke-linecap="round">
      <path d="M 250 106 L 236 116"></path>
      <path d="M 248 122 L 226 138"></path>
      <path d="M 246 140 L 218 158"></path>
      <path d="M 244 158 L 214 180"></path>
      <path d="M 242 176 L 214 204"></path>
      <path d="M 242 194 L 216 226"></path>
      <path d="M 242 212 L 220 246"></path>
      <path d="M 244 230 L 226 266"></path>
      <path d="M 246 248 L 234 284"></path>
      <path d="M 248 268 L 242 300"></path>
    </g>
    
    <g stroke="#12100D" stroke-width="1.4" fill="none" stroke-linecap="round">
      <path d="M 260 106 L 274 116"></path>
      <path d="M 262 122 L 286 138"></path>
      <path d="M 264 140 L 292 158"></path>
      <path d="M 266 158 L 294 180"></path>
      <path d="M 268 176 L 294 204"></path>
      <path d="M 268 194 L 290 226"></path>
      <path d="M 266 212 L 282 246"></path>
      <path d="M 262 230 L 272 266"></path>
    </g>

    
    <path d="M 248 314 Q 252 366 258 410" stroke="#E8C878" stroke-width="6.5" fill="none" stroke-linecap="round"></path>
    <path d="M 248 314 Q 252 366 258 410" stroke="#A88838" stroke-width="1.6" fill="none" stroke-linecap="round"></path>
    
    <ellipse cx="252" cy="350" rx="6" ry="3" fill="#7A5E28" stroke="#12100D" stroke-width="1.4"></ellipse>

    
    <path d="M 254 408&#xA;             L 252 426&#xA;             L 262 438&#xA;             L 268 426&#xA;             L 264 410 Z" fill="#D4AE58" stroke="#12100D" stroke-width="2.2" stroke-linejoin="round"></path>
    
    <path d="M 261 416 L 263 436" stroke="#12100D" stroke-width="1.4" fill="none" stroke-linecap="round"></path>
    
    <path d="M 258 410 L 256 420" stroke="#E8C878" stroke-width="1.2" stroke-linecap="round"></path>

    
    <path d="M 270 446&#xA;             C 260 446 254 454 254 462&#xA;             C 254 472 262 480 270 480&#xA;             C 278 480 286 472 286 462&#xA;             C 286 454 280 446 270 446 Z" fill="#D4AE58" stroke="#12100D" stroke-width="2"></path>
    
    <ellipse cx="266" cy="458" rx="3" ry="4.5" fill="#E8C878"></ellipse>
    
    <g fill="#D4AE58" stroke="#12100D" stroke-width="0.8">
      <circle cx="296" cy="450" r="2"></circle>
      <circle cx="248" cy="476" r="1.6"></circle>
    </g>
  </g>
</svg>