<svg xmlns="http://www.w3.org/2000/svg" viewBox="0 0 512 512" width="48" height="48">
  <rect width="512" height="512" fill="#12100D"></rect>

  
  <g fill="none" stroke="#D4AE58">
    <rect x="34" y="34" width="444" height="444" stroke-width="2.5"></rect>
    <rect x="46" y="46" width="420" height="420" stroke-width="0.8"></rect>
  </g>
  <g fill="#D4AE58" stroke="#D4AE58" stroke-width="1.4" stroke-linecap="round">
    <g transform="translate(60 60)"><path d="M 0 -7 L 7 0 L 0 7 L -7 0 Z"></path><path d="M -14 0 L -9 0 M 14 0 L 9 0 M 0 -14 L 0 -9 M 0 14 L 0 9" fill="none"></path></g>
    <g transform="translate(452 60)"><path d="M 0 -7 L 7 0 L 0 7 L -7 0 Z"></path><path d="M -14 0 L -9 0 M 14 0 L 9 0 M 0 -14 L 0 -9 M 0 14 L 0 9" fill="none"></path></g>
    <g transform="translate(60 452)"><path d="M 0 -7 L 7 0 L 0 7 L -7 0 Z"></path><path d="M -14 0 L -9 0 M 14 0 L 9 0 M 0 -14 L 0 -9 M 0 14 L 0 9" fill="none"></path></g>
    <g transform="translate(452 452)"><path d="M 0 -7 L 7 0 L 0 7 L -7 0 Z"></path><path d="M -14 0 L -9 0 M 14 0 L 9 0 M 0 -14 L 0 -9 M 0 14 L 0 9" fill="none"></path></g>
  </g>

  
  
  <g transform="translate(256 256)">
    
    <g fill="#D4AE58" stroke="#12100D" stroke-width="1.8" stroke-linejoin="round">
      <path d="M 0 -188 L 8 -96 L -8 -96 Z"></path>
      <g transform="rotate(45)"><path d="M 0 -188 L 8 -96 L -8 -96 Z"></path></g>
      <g transform="rotate(90)"><path d="M 0 -188 L 8 -96 L -8 -96 Z"></path></g>
      <g transform="rotate(135)"><path d="M 0 -188 L 8 -96 L -8 -96 Z"></path></g>
      <g transform="rotate(180)"><path d="M 0 -188 L 8 -96 L -8 -96 Z"></path></g>
      <g transform="rotate(225)"><path d="M 0 -188 L 8 -96 L -8 -96 Z"></path></g>
      <g transform="rotate(270)"><path d="M 0 -188 L 8 -96 L -8 -96 Z"></path></g>
      <g transform="rotate(315)"><path d="M 0 -188 L 8 -96 L -8 -96 Z"></path></g>
    </g>
    
    <g stroke="#E8C878" stroke-width="1.2" fill="none" stroke-linecap="round">
      <line x1="0" y1="-180" x2="0" y2="-104"></line>
      <g transform="rotate(45)"><line x1="0" y1="-180" x2="0" y2="-104"></line></g>
      <g transform="rotate(90)"><line x1="0" y1="-180" x2="0" y2="-104"></line></g>
      <g transform="rotate(135)"><line x1="0" y1="-180" x2="0" y2="-104"></line></g>
      <g transform="rotate(180)"><line x1="0" y1="-180" x2="0" y2="-104"></line></g>
      <g transform="rotate(225)"><line x1="0" y1="-180" x2="0" y2="-104"></line></g>
      <g transform="rotate(270)"><line x1="0" y1="-180" x2="0" y2="-104"></line></g>
      <g transform="rotate(315)"><line x1="0" y1="-180" x2="0" y2="-104"></line></g>
    </g>

    
    <g stroke="#D4AE58" stroke-width="3" fill="none" stroke-linecap="round">
      <g transform="rotate(22.5)"><path d="M -4 -148 Q 4 -132 -4 -116 Q 4 -104 0 -98"></path></g>
      <g transform="rotate(67.5)"><path d="M -4 -148 Q 4 -132 -4 -116 Q 4 -104 0 -98"></path></g>
      <g transform="rotate(112.5)"><path d="M -4 -148 Q 4 -132 -4 -116 Q 4 -104 0 -98"></path></g>
      <g transform="rotate(157.5)"><path d="M -4 -148 Q 4 -132 -4 -116 Q 4 -104 0 -98"></path></g>
      <g transform="rotate(202.5)"><path d="M -4 -148 Q 4 -132 -4 -116 Q 4 -104 0 -98"></path></g>
      <g transform="rotate(247.5)"><path d="M -4 -148 Q 4 -132 -4 -116 Q 4 -104 0 -98"></path></g>
      <g transform="rotate(292.5)"><path d="M -4 -148 Q 4 -132 -4 -116 Q 4 -104 0 -98"></path></g>
      <g transform="rotate(337.5)"><path d="M -4 -148 Q 4 -132 -4 -116 Q 4 -104 0 -98"></path></g>
    </g>
    
    <g fill="#D4AE58" stroke="#12100D" stroke-width="0.8">
      <g transform="rotate(22.5)"><circle cx="-4" cy="-150" r="2.6"></circle></g>
      <g transform="rotate(67.5)"><circle cx="-4" cy="-150" r="2.6"></circle></g>
      <g transform="rotate(112.5)"><circle cx="-4" cy="-150" r="2.6"></circle></g>
      <g transform="rotate(157.5)"><circle cx="-4" cy="-150" r="2.6"></circle></g>
      <g transform="rotate(202.5)"><circle cx="-4" cy="-150" r="2.6"></circle></g>
      <g transform="rotate(247.5)"><circle cx="-4" cy="-150" r="2.6"></circle></g>
      <g transform="rotate(292.5)"><circle cx="-4" cy="-150" r="2.6"></circle></g>
      <g transform="rotate(337.5)"><circle cx="-4" cy="-150" r="2.6"></circle></g>
    </g>
  </g>

  
  <g transform="translate(256 256)">
    
    <circle r="96" fill="#D4AE58" stroke="#12100D" stroke-width="2.4"></circle>
    <circle r="86" fill="none" stroke="#12100D" stroke-width="1.2"></circle>
    
    <g stroke="#12100D" stroke-width="1.2" stroke-linecap="round">
      <line x1="0" y1="-92" x2="0" y2="-82"></line>
      <g transform="rotate(30)"><line x1="0" y1="-92" x2="0" y2="-82"></line></g>
      <g transform="rotate(60)"><line x1="0" y1="-92" x2="0" y2="-82"></line></g>
      <g transform="rotate(90)"><line x1="0" y1="-92" x2="0" y2="-82"></line></g>
      <g transform="rotate(120)"><line x1="0" y1="-92" x2="0" y2="-82"></line></g>
      <g transform="rotate(150)"><line x1="0" y1="-92" x2="0" y2="-82"></line></g>
      <g transform="rotate(180)"><line x1="0" y1="-92" x2="0" y2="-82"></line></g>
      <g transform="rotate(210)"><line x1="0" y1="-92" x2="0" y2="-82"></line></g>
      <g transform="rotate(240)"><line x1="0" y1="-92" x2="0" y2="-82"></line></g>
      <g transform="rotate(270)"><line x1="0" y1="-92" x2="0" y2="-82"></line></g>
      <g transform="rotate(300)"><line x1="0" y1="-92" x2="0" y2="-82"></line></g>
      <g transform="rotate(330)"><line x1="0" y1="-92" x2="0" y2="-82"></line></g>
    </g>
    
    <circle r="76" fill="#A88838" stroke="#12100D" stroke-width="1.2"></circle>
  </g>

  
  <g transform="translate(256 256)">
    
    <path d="M -60 0&#xA;             C -40 -32 40 -32 60 0&#xA;             C 40 32 -40 32 -60 0 Z" fill="#E8C878" stroke="#12100D" stroke-width="2.6" stroke-linejoin="round"></path>
    
    <g stroke="#12100D" stroke-width="1.2" fill="none" stroke-linecap="round">
      <path d="M -56 -4 Q -56 -16 -50 -22"></path>
      <path d="M -38 -16 L -38 -24"></path>
      <path d="M -20 -22 L -20 -30"></path>
      <path d="M 0 -24 L 0 -32"></path>
      <path d="M 20 -22 L 20 -30"></path>
      <path d="M 38 -16 L 38 -24"></path>
      <path d="M 56 -4 Q 56 -16 50 -22"></path>
    </g>
    
    <circle r="22" fill="#7A5E28" stroke="#12100D" stroke-width="2"></circle>
    
    <g stroke="#12100D" stroke-width="0.9" stroke-linecap="round" fill="none">
      <line x1="0" y1="-20" x2="0" y2="-10"></line>
      <line x1="14" y1="-14" x2="7" y2="-7"></line>
      <line x1="20" y1="0" x2="10" y2="0"></line>
      <line x1="14" y1="14" x2="7" y2="7"></line>
      <line x1="0" y1="20" x2="0" y2="10"></line>
      <line x1="-14" y1="14" x2="-7" y2="7"></line>
      <line x1="-20" y1="0" x2="-10" y2="0"></line>
      <line x1="-14" y1="-14" x2="-7" y2="-7"></line>
    </g>
    
    <circle r="7" fill="#12100D"></circle>
    
    <circle cx="-2.5" cy="-2.5" r="1.6" fill="#E8C878"></circle>
  </g>
</svg>