<svg xmlns="http://www.w3.org/2000/svg" viewBox="0 0 512 512" width="48" height="48">
  <rect width="512" height="512" fill="#12100D"></rect>

  
  <circle cx="256" cy="256" r="216" fill="#D4AE58" stroke="#12100D" stroke-width="3"></circle>
  <circle cx="256" cy="256" r="204" fill="none" stroke="#12100D" stroke-width="1.2"></circle>
  <g fill="#7A5E28" stroke="#12100D" stroke-width="0.8">
    <g transform="translate(256 256)">
      <circle cy="-194" r="4.5"></circle>
      <g transform="rotate(22.5)"><circle cy="-194" r="4.5"></circle></g>
      <g transform="rotate(45)"><circle cy="-194" r="4.5"></circle></g>
      <g transform="rotate(67.5)"><circle cy="-194" r="4.5"></circle></g>
      <g transform="rotate(90)"><circle cy="-194" r="4.5"></circle></g>
      <g transform="rotate(112.5)"><circle cy="-194" r="4.5"></circle></g>
      <g transform="rotate(135)"><circle cy="-194" r="4.5"></circle></g>
      <g transform="rotate(157.5)"><circle cy="-194" r="4.5"></circle></g>
      <g transform="rotate(180)"><circle cy="-194" r="4.5"></circle></g>
      <g transform="rotate(202.5)"><circle cy="-194" r="4.5"></circle></g>
      <g transform="rotate(225)"><circle cy="-194" r="4.5"></circle></g>
      <g transform="rotate(247.5)"><circle cy="-194" r="4.5"></circle></g>
      <g transform="rotate(270)"><circle cy="-194" r="4.5"></circle></g>
      <g transform="rotate(292.5)"><circle cy="-194" r="4.5"></circle></g>
      <g transform="rotate(315)"><circle cy="-194" r="4.5"></circle></g>
      <g transform="rotate(337.5)"><circle cy="-194" r="4.5"></circle></g>
    </g>
  </g>
  <circle cx="256" cy="256" r="180" fill="#A88838" stroke="#12100D" stroke-width="2.4"></circle>
  <circle cx="256" cy="256" r="172" fill="none" stroke="#12100D" stroke-width="0.8"></circle>
  <g fill="#12100D">
    <g transform="translate(256 76)"><path d="M 0 -10 L 6 0 L 0 10 L -6 0 Z"></path></g>
    <g transform="translate(436 256)"><path d="M 0 -10 L 6 0 L 0 10 L -6 0 Z"></path></g>
    <g transform="translate(256 436)"><path d="M 0 -10 L 6 0 L 0 10 L -6 0 Z"></path></g>
    <g transform="translate(76 256)"><path d="M 0 -10 L 6 0 L 0 10 L -6 0 Z"></path></g>
  </g>

  
  <g transform="translate(256 256)">
    
    <g transform="rotate(-3)">
      
      <path d="M -130 -16&#xA;               L 130 -16&#xA;               L 132 60&#xA;               Q 100 64 60 60&#xA;               Q 0 64 -60 60&#xA;               Q -100 64 -132 60 Z" fill="#D4AE58" stroke="#12100D" stroke-width="2.6" stroke-linejoin="round"></path>
      
      <rect x="-118" y="-8" width="236" height="62" fill="none" stroke="#12100D" stroke-width="1" opacity="0.6"></rect>

      
      <text x="0" y="30" text-anchor="middle" font-family="&#39;Iowan Old Style&#39;, &#39;Palatino Linotype&#39;, Palatino, &#39;Book Antiqua&#39;, Georgia, serif" font-size="42" font-weight="700" letter-spacing="2" fill="#12100D">FINIS</text>

      
      <line x1="-92" y1="38" x2="92" y2="38" stroke="#7A5E28" stroke-width="0.8" opacity="0.7"></line>
    </g>

    
    <g transform="rotate(34)">
      
      <path d="M 0 -150&#xA;               C -22 -110 -28 -50 -8 0&#xA;               C 12 -50 18 -110 0 -150 Z" fill="#E8C878" stroke="#12100D" stroke-width="2.2" stroke-linejoin="round"></path>
      
      <path d="M 0 -142 C -14 -100 -16 -50 -6 -2 L -2 -148 Z" fill="#D4AE58"></path>
      
      <path d="M -2 -140 L -4 0" stroke="#12100D" stroke-width="1.6" fill="none" stroke-linecap="round"></path>
      
      <g stroke="#12100D" stroke-width="1.1" fill="none" stroke-linecap="round">
        <path d="M -4 -130 L -14 -120"></path>
        <path d="M -4 -116 L -18 -100"></path>
        <path d="M -4 -100 L -20 -80"></path>
        <path d="M -4 -84 L -20 -60"></path>
        <path d="M -4 -68 L -20 -40"></path>
        <path d="M -4 -52 L -18 -22"></path>
        <path d="M -4 -36 L -14 -8"></path>
        <path d="M 2 -130 L 12 -120"></path>
        <path d="M 2 -116 L 14 -100"></path>
        <path d="M 2 -100 L 16 -80"></path>
        <path d="M 2 -84 L 16 -60"></path>
        <path d="M 2 -68 L 14 -40"></path>
        <path d="M 2 -52 L 12 -22"></path>
      </g>
      
      <path d="M -4 0 Q -2 24 0 44" stroke="#E8C878" stroke-width="4.5" fill="none" stroke-linecap="round"></path>
      <path d="M -4 0 Q -2 24 0 44" stroke="#A88838" stroke-width="1.2" fill="none" stroke-linecap="round"></path>
      
      <path d="M -2 42&#xA;               L -4 54&#xA;               L 2 64&#xA;               L 6 56&#xA;               L 4 42 Z" fill="#12100D" stroke="#12100D" stroke-width="1.4" stroke-linejoin="round"></path>
      <line x1="1" y1="48" x2="3" y2="62" stroke="#D4AE58" stroke-width="0.8"></line>
    </g>

    
    <circle cx="90" cy="20" r="5" fill="#12100D"></circle>
    
    <g fill="#12100D">
      <circle cx="100" cy="14" r="1.4"></circle>
      <circle cx="100" cy="28" r="1.2"></circle>
    </g>
  </g>
</svg>