<?xml version="1.0" encoding="UTF-8"?>
<svg xmlns="http://www.w3.org/2000/svg" viewBox="0 0 512 512" width="512" height="512" shape-rendering="geometricPrecision">
  <defs>
      
      <symbol id="frame" viewBox="0 0 512 512">
        <rect width="512" height="512" fill="#12100D"></rect>
        
        <circle cx="256" cy="256" r="244" fill="none" stroke="#5C3A1C" stroke-width="1"></circle>
        
        <circle cx="256" cy="256" r="232" fill="none" stroke="#D4AE58" stroke-width="2.2"></circle>
        
        <circle cx="256" cy="256" r="220" fill="none" stroke="#B8893D" stroke-width="1" stroke-dasharray="1.5 4"></circle>
        
        <g fill="#D4AE58">
          <rect x="254" y="6" width="4" height="14"></rect>
          <rect x="254" y="492" width="4" height="14"></rect>
          <rect x="6" y="254" width="14" height="4"></rect>
          <rect x="492" y="254" width="14" height="4"></rect>
        </g>
        
        <g fill="#B8893D">
          <circle cx="92" cy="92" r="2.4"></circle>
          <circle cx="420" cy="92" r="2.4"></circle>
          <circle cx="92" cy="420" r="2.4"></circle>
          <circle cx="420" cy="420" r="2.4"></circle>
        </g>
        
        <g fill="#D4AE58">
          <path d="M256 22 l2 6 6 2 -6 2 -2 6 -2 -6 -6 -2 6 -2z" opacity="0"></path>
        </g>
      </symbol>

      
      <pattern id="hatch" patternUnits="userSpaceOnUse" width="6" height="6" patternTransform="rotate(45)">
        <line x1="0" y1="0" x2="0" y2="6" stroke="#8B5A2B" stroke-width="1"></line>
      </pattern>
      <pattern id="hatchLight" patternUnits="userSpaceOnUse" width="5" height="5" patternTransform="rotate(45)">
        <line x1="0" y1="0" x2="0" y2="5" stroke="#B8893D" stroke-width=".8" opacity=".55"></line>
      </pattern>
      <pattern id="stipple" patternUnits="userSpaceOnUse" width="6" height="6">
        <circle cx="1" cy="1" r=".7" fill="#8B5A2B"></circle>
      </pattern>
    </defs>
  <use href="#frame"></use>
  
    <g>
      
      <rect x="116" y="200" width="36" height="160" rx="18" fill="#8B5A2B" stroke="#D4AE58" stroke-width="2.2"></rect>
      <line x1="134" y1="210" x2="134" y2="350" stroke="#D4AE58" stroke-width="1"></line>
      
      <path d="M152 208 L360 208 Q380 208 380 224 L380 336 Q380 352 360 352 L152 352 Z" fill="#D4AE58" stroke="#5C3A1C" stroke-width="1.6"></path>
      
      <g stroke="#5C3A1C" stroke-width="1.6" stroke-linecap="round">
        <line x1="172" y1="232" x2="332" y2="232"></line>
        <line x1="172" y1="252" x2="354" y2="252"></line>
        <line x1="172" y1="272" x2="320" y2="272"></line>
        <line x1="172" y1="292" x2="344" y2="292"></line>
        <line x1="172" y1="312" x2="280" y2="312"></line>
        <line x1="172" y1="332" x2="340" y2="332"></line>
      </g>
      
      <rect x="380" y="200" width="22" height="160" rx="11" fill="#B8893D" stroke="#D4AE58" stroke-width="2"></rect>
    </g>
    
    <g stroke="#D4AE58" stroke-width="2.4" stroke-linecap="round" fill="none">
      <path d="M376 168 L268 320"></path>
      <path d="M376 168 Q368 178 366 192 Q358 198 346 198 Q340 206 332 210 Q326 218 316 220 Q310 228 302 232 Q296 240 286 244" stroke-width="1.4"></path>
      <path d="M268 320 l-12 16 l16 -2 z" fill="#D4AE58"></path>
    </g>
</svg>