<?xml version="1.0" encoding="UTF-8"?>
<svg xmlns="http://www.w3.org/2000/svg" viewBox="0 0 512 512" width="512" height="512" shape-rendering="geometricPrecision">
  <defs>
      
      <symbol id="frame" viewBox="0 0 512 512">
        <rect width="512" height="512" fill="#12100D"></rect>
        
        <circle cx="256" cy="256" r="244" fill="none" stroke="#5C3A1C" stroke-width="1"></circle>
        
        <circle cx="256" cy="256" r="232" fill="none" stroke="#D4AE58" stroke-width="2.2"></circle>
        
        <circle cx="256" cy="256" r="220" fill="none" stroke="#B8893D" stroke-width="1" stroke-dasharray="1.5 4"></circle>
        
        <g fill="#D4AE58">
          <rect x="254" y="6" width="4" height="14"></rect>
          <rect x="254" y="492" width="4" height="14"></rect>
          <rect x="6" y="254" width="14" height="4"></rect>
          <rect x="492" y="254" width="14" height="4"></rect>
        </g>
        
        <g fill="#B8893D">
          <circle cx="92" cy="92" r="2.4"></circle>
          <circle cx="420" cy="92" r="2.4"></circle>
          <circle cx="92" cy="420" r="2.4"></circle>
          <circle cx="420" cy="420" r="2.4"></circle>
        </g>
        
        <g fill="#D4AE58">
          <path d="M256 22 l2 6 6 2 -6 2 -2 6 -2 -6 -6 -2 6 -2z" opacity="0"></path>
        </g>
      </symbol>

      
      <pattern id="hatch" patternUnits="userSpaceOnUse" width="6" height="6" patternTransform="rotate(45)">
        <line x1="0" y1="0" x2="0" y2="6" stroke="#8B5A2B" stroke-width="1"></line>
      </pattern>
      <pattern id="hatchLight" patternUnits="userSpaceOnUse" width="5" height="5" patternTransform="rotate(45)">
        <line x1="0" y1="0" x2="0" y2="5" stroke="#B8893D" stroke-width=".8" opacity=".55"></line>
      </pattern>
      <pattern id="stipple" patternUnits="userSpaceOnUse" width="6" height="6">
        <circle cx="1" cy="1" r=".7" fill="#8B5A2B"></circle>
      </pattern>
    </defs>
  <use href="#frame"></use>
  <g>
      
      <g transform="translate(256 256) rotate(45)">
        <rect x="-3" y="-150" width="6" height="220" fill="#D4AE58" stroke="#5C3A1C" stroke-width="1"></rect>
        <line x1="0" y1="-150" x2="0" y2="60" stroke="#B8893D" stroke-width="1"></line>
        <polygon points="0,-164 5,-150 -5,-150" fill="#D4AE58"></polygon>
        <rect x="-30" y="60" width="60" height="8" fill="#B8893D" stroke="#5C3A1C" stroke-width="1"></rect>
        <rect x="-26" y="68" width="52" height="6" fill="#5C3A1C"></rect>
        <rect x="-4" y="74" width="8" height="60" fill="#8B5A2B" stroke="#5C3A1C" stroke-width="1"></rect>
        <line x1="0" y1="78" x2="0" y2="130" stroke="#D4AE58" stroke-width="1"></line>
        <circle cx="0" cy="140" r="9" fill="#D4AE58" stroke="#5C3A1C" stroke-width="1"></circle>
      </g>
      
      <g transform="translate(256 256) rotate(-45)">
        <rect x="-3" y="-150" width="6" height="220" fill="#B8893D" stroke="#5C3A1C" stroke-width="1"></rect>
        <line x1="0" y1="-150" x2="0" y2="60" stroke="#D4AE58" stroke-width="1"></line>
        <polygon points="0,-164 5,-150 -5,-150" fill="#B8893D"></polygon>
        <rect x="-30" y="60" width="60" height="8" fill="#D4AE58" stroke="#5C3A1C" stroke-width="1"></rect>
        <rect x="-26" y="68" width="52" height="6" fill="#5C3A1C"></rect>
        <rect x="-4" y="74" width="8" height="60" fill="#8B5A2B" stroke="#5C3A1C" stroke-width="1"></rect>
        <line x1="0" y1="78" x2="0" y2="130" stroke="#B8893D" stroke-width="1"></line>
        <circle cx="0" cy="140" r="9" fill="#B8893D" stroke="#5C3A1C" stroke-width="1"></circle>
      </g>
      
      <circle cx="256" cy="256" r="9" fill="#D4AE58" stroke="#5C3A1C" stroke-width="1.4"></circle>
    </g>
</svg>