<?xml version="1.0" encoding="UTF-8"?>
<svg xmlns="http://www.w3.org/2000/svg" viewBox="0 0 512 512" width="512" height="512" shape-rendering="geometricPrecision">
  <defs>
      
      <symbol id="frame" viewBox="0 0 512 512">
        <rect width="512" height="512" fill="#12100D"></rect>
        
        <circle cx="256" cy="256" r="244" fill="none" stroke="#5C3A1C" stroke-width="1"></circle>
        
        <circle cx="256" cy="256" r="232" fill="none" stroke="#D4AE58" stroke-width="2.2"></circle>
        
        <circle cx="256" cy="256" r="220" fill="none" stroke="#B8893D" stroke-width="1" stroke-dasharray="1.5 4"></circle>
        
        <g fill="#D4AE58">
          <rect x="254" y="6" width="4" height="14"></rect>
          <rect x="254" y="492" width="4" height="14"></rect>
          <rect x="6" y="254" width="14" height="4"></rect>
          <rect x="492" y="254" width="14" height="4"></rect>
        </g>
        
        <g fill="#B8893D">
          <circle cx="92" cy="92" r="2.4"></circle>
          <circle cx="420" cy="92" r="2.4"></circle>
          <circle cx="92" cy="420" r="2.4"></circle>
          <circle cx="420" cy="420" r="2.4"></circle>
        </g>
        
        <g fill="#D4AE58">
          <path d="M256 22 l2 6 6 2 -6 2 -2 6 -2 -6 -6 -2 6 -2z" opacity="0"></path>
        </g>
      </symbol>

      
      <pattern id="hatch" patternUnits="userSpaceOnUse" width="6" height="6" patternTransform="rotate(45)">
        <line x1="0" y1="0" x2="0" y2="6" stroke="#8B5A2B" stroke-width="1"></line>
      </pattern>
      <pattern id="hatchLight" patternUnits="userSpaceOnUse" width="5" height="5" patternTransform="rotate(45)">
        <line x1="0" y1="0" x2="0" y2="5" stroke="#B8893D" stroke-width=".8" opacity=".55"></line>
      </pattern>
      <pattern id="stipple" patternUnits="userSpaceOnUse" width="6" height="6">
        <circle cx="1" cy="1" r=".7" fill="#8B5A2B"></circle>
      </pattern>
    </defs>
  <use href="#frame"></use>
  <g>
      
      <rect x="148" y="120" width="216" height="14" fill="#B8893D" stroke="#D4AE58" stroke-width="2"></rect>
      <rect x="148" y="378" width="216" height="14" fill="#B8893D" stroke="#D4AE58" stroke-width="2"></rect>
      
      <rect x="150" y="130" width="10" height="252" fill="#8B5A2B" stroke="#D4AE58" stroke-width="1.6"></rect>
      <rect x="352" y="130" width="10" height="252" fill="#8B5A2B" stroke="#D4AE58" stroke-width="1.6"></rect>
      
      <path d="M180 134 L332 134 L268 256 L332 378 L180 378 L244 256 Z" fill="none" stroke="#D4AE58" stroke-width="2.6" stroke-linejoin="round"></path>
      
      <path d="M198 144 L314 144 L262 244 L250 244 Z" fill="#D4AE58"></path>
      
      <rect x="254" y="244" width="4" height="46" fill="#D4AE58"></rect>
      
      <path d="M204 372 L308 372 L290 322 Q256 296 222 322 Z" fill="#B8893D"></path>
      <path d="M204 372 L308 372 L290 322 Q256 296 222 322 Z" fill="url(#hatchLight)"></path>
      
      <circle cx="256" cy="116" r="4" fill="#D4AE58"></circle>
      <circle cx="256" cy="396" r="4" fill="#D4AE58"></circle>
    </g>
</svg>