<?xml version="1.0" encoding="UTF-8"?>
<svg xmlns="http://www.w3.org/2000/svg" viewBox="0 0 512 512" width="512" height="512" shape-rendering="geometricPrecision">
  <defs>
      
      <symbol id="frame" viewBox="0 0 512 512">
        <rect width="512" height="512" fill="#12100D"></rect>
        
        <circle cx="256" cy="256" r="244" fill="none" stroke="#5C3A1C" stroke-width="1"></circle>
        
        <circle cx="256" cy="256" r="232" fill="none" stroke="#D4AE58" stroke-width="2.2"></circle>
        
        <circle cx="256" cy="256" r="220" fill="none" stroke="#B8893D" stroke-width="1" stroke-dasharray="1.5 4"></circle>
        
        <g fill="#D4AE58">
          <rect x="254" y="6" width="4" height="14"></rect>
          <rect x="254" y="492" width="4" height="14"></rect>
          <rect x="6" y="254" width="14" height="4"></rect>
          <rect x="492" y="254" width="14" height="4"></rect>
        </g>
        
        <g fill="#B8893D">
          <circle cx="92" cy="92" r="2.4"></circle>
          <circle cx="420" cy="92" r="2.4"></circle>
          <circle cx="92" cy="420" r="2.4"></circle>
          <circle cx="420" cy="420" r="2.4"></circle>
        </g>
        
        <g fill="#D4AE58">
          <path d="M256 22 l2 6 6 2 -6 2 -2 6 -2 -6 -6 -2 6 -2z" opacity="0"></path>
        </g>
      </symbol>

      
      <pattern id="hatch" patternUnits="userSpaceOnUse" width="6" height="6" patternTransform="rotate(45)">
        <line x1="0" y1="0" x2="0" y2="6" stroke="#8B5A2B" stroke-width="1"></line>
      </pattern>
      <pattern id="hatchLight" patternUnits="userSpaceOnUse" width="5" height="5" patternTransform="rotate(45)">
        <line x1="0" y1="0" x2="0" y2="5" stroke="#B8893D" stroke-width=".8" opacity=".55"></line>
      </pattern>
      <pattern id="stipple" patternUnits="userSpaceOnUse" width="6" height="6">
        <circle cx="1" cy="1" r=".7" fill="#8B5A2B"></circle>
      </pattern>
    </defs>
  <use href="#frame"></use>
  <g>
      
      <path d="M134 188 L256 200 L378 188 L378 364 L256 376 L134 364 Z" fill="#D4AE58" stroke="#5C3A1C" stroke-width="2"></path>
      
      <line x1="256" y1="200" x2="256" y2="376" stroke="#5C3A1C" stroke-width="2"></line>
      
      <g stroke="#5C3A1C" stroke-width="1.2" stroke-linecap="round">
        <line x1="156" y1="226" x2="232" y2="232"></line>
        <line x1="156" y1="246" x2="236" y2="252"></line>
        <line x1="156" y1="266" x2="228" y2="270"></line>
      </g>
      
      <g stroke="#5C3A1C" stroke-width="1.2" stroke-linecap="round">
        <line x1="280" y1="232" x2="356" y2="226"></line>
        <line x1="276" y1="252" x2="356" y2="246"></line>
        <line x1="284" y1="270" x2="356" y2="266"></line>
      </g>
      
      <g transform="translate(256 320)">
        <circle r="40" fill="none" stroke="#8B5A2B" stroke-width="1.6"></circle>
        
        <path d="M0 -34 L29 17 L-29 17 Z" fill="none" stroke="#8B5A2B" stroke-width="2"></path>
        <path d="M0 34 L29 -17 L-29 -17 Z" fill="none" stroke="#8B5A2B" stroke-width="2"></path>
        
        <ellipse cx="0" cy="0" rx="14" ry="7" fill="#12100D" stroke="#8B5A2B" stroke-width="1.6"></ellipse>
        <circle r="3.4" fill="#8B5A2B"></circle>
      </g>
      
      <rect x="252" y="184" width="8" height="200" fill="#8B5A2B" opacity=".0"></rect>
    </g>
</svg>