<?xml version="1.0" encoding="UTF-8"?>
<svg xmlns="http://www.w3.org/2000/svg" viewBox="0 0 512 512" width="512" height="512" shape-rendering="geometricPrecision">
  <defs>
      
      <symbol id="frame" viewBox="0 0 512 512">
        <rect width="512" height="512" fill="#12100D"></rect>
        
        <circle cx="256" cy="256" r="244" fill="none" stroke="#5C3A1C" stroke-width="1"></circle>
        
        <circle cx="256" cy="256" r="232" fill="none" stroke="#D4AE58" stroke-width="2.2"></circle>
        
        <circle cx="256" cy="256" r="220" fill="none" stroke="#B8893D" stroke-width="1" stroke-dasharray="1.5 4"></circle>
        
        <g fill="#D4AE58">
          <rect x="254" y="6" width="4" height="14"></rect>
          <rect x="254" y="492" width="4" height="14"></rect>
          <rect x="6" y="254" width="14" height="4"></rect>
          <rect x="492" y="254" width="14" height="4"></rect>
        </g>
        
        <g fill="#B8893D">
          <circle cx="92" cy="92" r="2.4"></circle>
          <circle cx="420" cy="92" r="2.4"></circle>
          <circle cx="92" cy="420" r="2.4"></circle>
          <circle cx="420" cy="420" r="2.4"></circle>
        </g>
        
        <g fill="#D4AE58">
          <path d="M256 22 l2 6 6 2 -6 2 -2 6 -2 -6 -6 -2 6 -2z" opacity="0"></path>
        </g>
      </symbol>

      
      <pattern id="hatch" patternUnits="userSpaceOnUse" width="6" height="6" patternTransform="rotate(45)">
        <line x1="0" y1="0" x2="0" y2="6" stroke="#8B5A2B" stroke-width="1"></line>
      </pattern>
      <pattern id="hatchLight" patternUnits="userSpaceOnUse" width="5" height="5" patternTransform="rotate(45)">
        <line x1="0" y1="0" x2="0" y2="5" stroke="#B8893D" stroke-width=".8" opacity=".55"></line>
      </pattern>
      <pattern id="stipple" patternUnits="userSpaceOnUse" width="6" height="6">
        <circle cx="1" cy="1" r=".7" fill="#8B5A2B"></circle>
      </pattern>
    </defs>
  <use href="#frame"></use>
  <g>
      
      <g fill="#B8893D">
        <path d="M256 130 q-20 36 -34 70 q-2 -34 22 -54 q-6 24 12 14 q-4 -20 0 -30z"></path>
        <path d="M210 178 q-12 30 -22 56 q-2 -28 16 -44 q-6 18 10 12z" opacity=".8"></path>
        <path d="M306 188 q-10 30 -14 50 q-4 -24 8 -40 q-2 16 12 10z" opacity=".8"></path>
      </g>
      <g fill="#D4AE58">
        <path d="M256 158 q-10 28 -20 50 q-2 -26 14 -38 q-2 14 10 8 q-2 -14 -4 -20z"></path>
      </g>
      
      <ellipse cx="256" cy="290" rx="120" ry="22" fill="#5C3A1C"></ellipse>
      <path d="M140 288 q12 84 116 86 q108 -2 116 -86 Z" fill="#8B5A2B" stroke="#D4AE58" stroke-width="2.6"></path>
      
      <ellipse cx="256" cy="284" rx="116" ry="20" fill="none" stroke="#D4AE58" stroke-width="2.6"></ellipse>
      <ellipse cx="256" cy="284" rx="106" ry="14" fill="#12100D" stroke="#B8893D" stroke-width="1.4"></ellipse>
      
      <ellipse cx="256" cy="284" rx="98" ry="12" fill="#D4AE58"></ellipse>
      <ellipse cx="256" cy="280" rx="60" ry="4" fill="#B8893D"></ellipse>
      
      <path d="M156 320 q100 28 200 0" fill="none" stroke="#D4AE58" stroke-width="1.4" stroke-dasharray="2 3"></path>
      
      <circle cx="142" cy="284" r="8" fill="none" stroke="#D4AE58" stroke-width="2"></circle>
      <circle cx="370" cy="284" r="8" fill="none" stroke="#D4AE58" stroke-width="2"></circle>
      
      <rect x="200" y="372" width="32" height="16" fill="#B8893D" stroke="#D4AE58" stroke-width="1.6"></rect>
      <rect x="280" y="372" width="32" height="16" fill="#B8893D" stroke="#D4AE58" stroke-width="1.6"></rect>
    </g>
</svg>