<?xml version="1.0" encoding="UTF-8"?>
<svg xmlns="http://www.w3.org/2000/svg" viewBox="0 0 512 512" width="512" height="512" shape-rendering="geometricPrecision">
  <defs>
      
      <symbol id="frame" viewBox="0 0 512 512">
        <rect width="512" height="512" fill="#12100D"></rect>
        
        <circle cx="256" cy="256" r="244" fill="none" stroke="#5C3A1C" stroke-width="1"></circle>
        
        <circle cx="256" cy="256" r="232" fill="none" stroke="#D4AE58" stroke-width="2.2"></circle>
        
        <circle cx="256" cy="256" r="220" fill="none" stroke="#B8893D" stroke-width="1" stroke-dasharray="1.5 4"></circle>
        
        <g fill="#D4AE58">
          <rect x="254" y="6" width="4" height="14"></rect>
          <rect x="254" y="492" width="4" height="14"></rect>
          <rect x="6" y="254" width="14" height="4"></rect>
          <rect x="492" y="254" width="14" height="4"></rect>
        </g>
        
        <g fill="#B8893D">
          <circle cx="92" cy="92" r="2.4"></circle>
          <circle cx="420" cy="92" r="2.4"></circle>
          <circle cx="92" cy="420" r="2.4"></circle>
          <circle cx="420" cy="420" r="2.4"></circle>
        </g>
        
        <g fill="#D4AE58">
          <path d="M256 22 l2 6 6 2 -6 2 -2 6 -2 -6 -6 -2 6 -2z" opacity="0"></path>
        </g>
      </symbol>

      
      <pattern id="hatch" patternUnits="userSpaceOnUse" width="6" height="6" patternTransform="rotate(45)">
        <line x1="0" y1="0" x2="0" y2="6" stroke="#8B5A2B" stroke-width="1"></line>
      </pattern>
      <pattern id="hatchLight" patternUnits="userSpaceOnUse" width="5" height="5" patternTransform="rotate(45)">
        <line x1="0" y1="0" x2="0" y2="5" stroke="#B8893D" stroke-width=".8" opacity=".55"></line>
      </pattern>
      <pattern id="stipple" patternUnits="userSpaceOnUse" width="6" height="6">
        <circle cx="1" cy="1" r=".7" fill="#8B5A2B"></circle>
      </pattern>
    </defs>
  <use href="#frame"></use>
  <g>
      
      <g transform="translate(216 216)">
        <circle r="98" fill="#12100D" stroke="#D4AE58" stroke-width="6"></circle>
        <circle r="86" fill="none" stroke="#B8893D" stroke-width="1.4" stroke-dasharray="2 3"></circle>
        
        <path d="M -56 -38 q -16 36 6 66" fill="none" stroke="#D4AE58" stroke-width="3" opacity=".6"></path>
        
        <circle r="78" fill="url(#stipple)" opacity=".22"></circle>
        
        <g fill="#D4AE58">
          <circle cx="0" cy="-98" r="4"></circle>
          <circle cx="69" cy="-69" r="4"></circle>
          <circle cx="98" cy="0" r="4"></circle>
          <circle cx="-69" cy="-69" r="4"></circle>
          <circle cx="-98" cy="0" r="4"></circle>
          <circle cx="-69" cy="69" r="4"></circle>
          <circle cx="0" cy="98" r="4"></circle>
        </g>
      </g>

      
      <g transform="translate(216 216) rotate(-45)">
        
        <path d="M -20 92 L 20 92 L 16 112 L -16 112 Z" fill="#D4AE58" stroke="#5C3A1C" stroke-width="1.6"></path>
        
        <rect x="-18" y="112" width="36" height="16" fill="#B8893D" stroke="#D4AE58" stroke-width="1.8"></rect>
        
        <rect x="-14" y="128" width="28" height="110" rx="5" fill="#8B5A2B" stroke="#D4AE58" stroke-width="2.4"></rect>
        
        <g stroke="#D4AE58" stroke-width="1.4">
          <line x1="-14" y1="152" x2="14" y2="152"></line>
          <line x1="-14" y1="172" x2="14" y2="172"></line>
          <line x1="-14" y1="192" x2="14" y2="192"></line>
          <line x1="-14" y1="212" x2="14" y2="212"></line>
        </g>
        
        <rect x="-18" y="238" width="36" height="14" fill="#B8893D" stroke="#D4AE58" stroke-width="1.8"></rect>
        
        <circle cx="0" cy="260" r="6" fill="#D4AE58" stroke="#5C3A1C" stroke-width="1.2"></circle>
      </g>
    </g>
</svg>