<?xml version="1.0" encoding="UTF-8"?>
<svg xmlns="http://www.w3.org/2000/svg" viewBox="0 0 512 512" width="512" height="512" shape-rendering="geometricPrecision">
  <defs>
      
      <symbol id="frame" viewBox="0 0 512 512">
        <rect width="512" height="512" fill="#12100D"></rect>
        
        <circle cx="256" cy="256" r="244" fill="none" stroke="#5C3A1C" stroke-width="1"></circle>
        
        <circle cx="256" cy="256" r="232" fill="none" stroke="#D4AE58" stroke-width="2.2"></circle>
        
        <circle cx="256" cy="256" r="220" fill="none" stroke="#B8893D" stroke-width="1" stroke-dasharray="1.5 4"></circle>
        
        <g fill="#D4AE58">
          <rect x="254" y="6" width="4" height="14"></rect>
          <rect x="254" y="492" width="4" height="14"></rect>
          <rect x="6" y="254" width="14" height="4"></rect>
          <rect x="492" y="254" width="14" height="4"></rect>
        </g>
        
        <g fill="#B8893D">
          <circle cx="92" cy="92" r="2.4"></circle>
          <circle cx="420" cy="92" r="2.4"></circle>
          <circle cx="92" cy="420" r="2.4"></circle>
          <circle cx="420" cy="420" r="2.4"></circle>
        </g>
        
        <g fill="#D4AE58">
          <path d="M256 22 l2 6 6 2 -6 2 -2 6 -2 -6 -6 -2 6 -2z" opacity="0"></path>
        </g>
      </symbol>

      
      <pattern id="hatch" patternUnits="userSpaceOnUse" width="6" height="6" patternTransform="rotate(45)">
        <line x1="0" y1="0" x2="0" y2="6" stroke="#8B5A2B" stroke-width="1"></line>
      </pattern>
      <pattern id="hatchLight" patternUnits="userSpaceOnUse" width="5" height="5" patternTransform="rotate(45)">
        <line x1="0" y1="0" x2="0" y2="5" stroke="#B8893D" stroke-width=".8" opacity=".55"></line>
      </pattern>
      <pattern id="stipple" patternUnits="userSpaceOnUse" width="6" height="6">
        <circle cx="1" cy="1" r=".7" fill="#8B5A2B"></circle>
      </pattern>
    </defs>
  <use href="#frame"></use>
  <g>
      
      <g stroke="#D4AE58" stroke-width="2.4">
        <line x1="180" y1="124" x2="180" y2="388"></line>
        <line x1="216" y1="124" x2="216" y2="388"></line>
        <line x1="252" y1="124" x2="252" y2="388"></line>
        <line x1="288" y1="124" x2="288" y2="388"></line>
        <line x1="324" y1="124" x2="324" y2="388"></line>
      </g>
      
      <rect x="140" y="116" width="232" height="14" fill="#8B5A2B" stroke="#D4AE58" stroke-width="2"></rect>
      <rect x="140" y="382" width="232" height="14" fill="#8B5A2B" stroke="#D4AE58" stroke-width="2"></rect>
      
      <g stroke="#B8893D" stroke-width="3" fill="none">
        <path d="M170 180 Q198 174 216 180 T288 180 T360 180"></path>
        <path d="M170 220 Q198 226 216 220 T288 220 T360 220"></path>
        <path d="M170 260 Q198 254 216 260 T288 260 T360 260"></path>
      </g>
      
      <g transform="translate(256 300) rotate(20)">
        <path d="M-60 0 q60 -16 120 0 q-60 16 -120 0 z" fill="#D4AE58" stroke="#5C3A1C" stroke-width="2"></path>
        <circle r="5" fill="#5C3A1C"></circle>
        <line x1="-40" y1="0" x2="40" y2="0" stroke="#B8893D" stroke-width="1.4"></line>
        
        <path d="M60 0 q40 14 78 -2" fill="none" stroke="#D4AE58" stroke-width="1.4"></path>
      </g>
      
      <g fill="#D4AE58">
        <circle cx="148" cy="123" r="4"></circle>
        <circle cx="364" cy="123" r="4"></circle>
        <circle cx="148" cy="389" r="4"></circle>
        <circle cx="364" cy="389" r="4"></circle>
      </g>
    </g>
</svg>