<?xml version="1.0" encoding="UTF-8"?>
<svg xmlns="http://www.w3.org/2000/svg" viewBox="0 0 512 512" width="512" height="512" shape-rendering="geometricPrecision">
  <defs>
      
      <symbol id="frame" viewBox="0 0 512 512">
        <rect width="512" height="512" fill="#12100D"></rect>
        
        <circle cx="256" cy="256" r="244" fill="none" stroke="#5C3A1C" stroke-width="1"></circle>
        
        <circle cx="256" cy="256" r="232" fill="none" stroke="#D4AE58" stroke-width="2.2"></circle>
        
        <circle cx="256" cy="256" r="220" fill="none" stroke="#B8893D" stroke-width="1" stroke-dasharray="1.5 4"></circle>
        
        <g fill="#D4AE58">
          <rect x="254" y="6" width="4" height="14"></rect>
          <rect x="254" y="492" width="4" height="14"></rect>
          <rect x="6" y="254" width="14" height="4"></rect>
          <rect x="492" y="254" width="14" height="4"></rect>
        </g>
        
        <g fill="#B8893D">
          <circle cx="92" cy="92" r="2.4"></circle>
          <circle cx="420" cy="92" r="2.4"></circle>
          <circle cx="92" cy="420" r="2.4"></circle>
          <circle cx="420" cy="420" r="2.4"></circle>
        </g>
        
        <g fill="#D4AE58">
          <path d="M256 22 l2 6 6 2 -6 2 -2 6 -2 -6 -6 -2 6 -2z" opacity="0"></path>
        </g>
      </symbol>

      
      <pattern id="hatch" patternUnits="userSpaceOnUse" width="6" height="6" patternTransform="rotate(45)">
        <line x1="0" y1="0" x2="0" y2="6" stroke="#8B5A2B" stroke-width="1"></line>
      </pattern>
      <pattern id="hatchLight" patternUnits="userSpaceOnUse" width="5" height="5" patternTransform="rotate(45)">
        <line x1="0" y1="0" x2="0" y2="5" stroke="#B8893D" stroke-width=".8" opacity=".55"></line>
      </pattern>
      <pattern id="stipple" patternUnits="userSpaceOnUse" width="6" height="6">
        <circle cx="1" cy="1" r=".7" fill="#8B5A2B"></circle>
      </pattern>
    </defs>
  <use href="#frame"></use>
  <g>
      
      <path d="M196 224 v-30 a60 60 0 0 1 120 0 v30" fill="none" stroke="#D4AE58" stroke-width="14" stroke-linecap="round"></path>
      <path d="M196 224 v-30 a60 60 0 0 1 120 0 v30" fill="none" stroke="#B8893D" stroke-width="3" stroke-linecap="round"></path>
      
      <rect x="152" y="220" width="208" height="172" rx="14" fill="#8B5A2B" stroke="#D4AE58" stroke-width="2.8"></rect>
      <rect x="164" y="232" width="184" height="148" rx="8" fill="none" stroke="#D4AE58" stroke-width="1" stroke-dasharray="2 3"></rect>
      
      <g transform="translate(256 306)">
        <circle r="16" fill="#12100D" stroke="#D4AE58" stroke-width="2"></circle>
        <path d="M-4 0 L-8 30 L8 30 L4 0 Z" fill="#12100D" stroke="#D4AE58" stroke-width="2"></path>
      </g>
      
      <g stroke="#D4AE58" stroke-width="2" fill="none" stroke-linecap="round">
        
        <g transform="translate(186 262)">
          <line x1="0" y1="0" x2="0" y2="20"></line>
          <line x1="-8" y1="6" x2="0" y2="0"></line>
          <line x1="8" y1="6" x2="0" y2="0"></line>
        </g>
        
        <g transform="translate(220 262)">
          <line x1="0" y1="0" x2="0" y2="20"></line>
          <line x1="0" y1="2" x2="-8" y2="-6"></line>
          <line x1="0" y1="2" x2="8" y2="-6"></line>
        </g>
        
        <g transform="translate(292 262)">
          <line x1="-6" y1="0" x2="-6" y2="20"></line>
          <line x1="6" y1="0" x2="6" y2="20"></line>
          <line x1="-6" y1="4" x2="6" y2="14"></line>
        </g>
        
        <g transform="translate(326 262)">
          <line x1="-6" y1="0" x2="-6" y2="20"></line>
          <line x1="-6" y1="0" x2="6" y2="10"></line>
          <line x1="-6" y1="20" x2="6" y2="10"></line>
        </g>
      </g>
      
      <g stroke="#B8893D" stroke-width="1.6" fill="none">
        <line x1="186" y1="356" x2="186" y2="370"></line>
        <line x1="206" y1="356" x2="216" y2="370"></line>
        <line x1="226" y1="370" x2="236" y2="356"></line>
        <line x1="296" y1="356" x2="296" y2="370"></line>
        <line x1="316" y1="356" x2="326" y2="370"></line>
      </g>
    </g>
</svg>