<?xml version="1.0" encoding="UTF-8"?>
<svg xmlns="http://www.w3.org/2000/svg" viewBox="0 0 512 512" width="512" height="512" shape-rendering="geometricPrecision">
  <defs>
      
      <symbol id="frame" viewBox="0 0 512 512">
        <rect width="512" height="512" fill="#12100D"></rect>
        
        <circle cx="256" cy="256" r="244" fill="none" stroke="#5C3A1C" stroke-width="1"></circle>
        
        <circle cx="256" cy="256" r="232" fill="none" stroke="#D4AE58" stroke-width="2.2"></circle>
        
        <circle cx="256" cy="256" r="220" fill="none" stroke="#B8893D" stroke-width="1" stroke-dasharray="1.5 4"></circle>
        
        <g fill="#D4AE58">
          <rect x="254" y="6" width="4" height="14"></rect>
          <rect x="254" y="492" width="4" height="14"></rect>
          <rect x="6" y="254" width="14" height="4"></rect>
          <rect x="492" y="254" width="14" height="4"></rect>
        </g>
        
        <g fill="#B8893D">
          <circle cx="92" cy="92" r="2.4"></circle>
          <circle cx="420" cy="92" r="2.4"></circle>
          <circle cx="92" cy="420" r="2.4"></circle>
          <circle cx="420" cy="420" r="2.4"></circle>
        </g>
        
        <g fill="#D4AE58">
          <path d="M256 22 l2 6 6 2 -6 2 -2 6 -2 -6 -6 -2 6 -2z" opacity="0"></path>
        </g>
      </symbol>

      
      <pattern id="hatch" patternUnits="userSpaceOnUse" width="6" height="6" patternTransform="rotate(45)">
        <line x1="0" y1="0" x2="0" y2="6" stroke="#8B5A2B" stroke-width="1"></line>
      </pattern>
      <pattern id="hatchLight" patternUnits="userSpaceOnUse" width="5" height="5" patternTransform="rotate(45)">
        <line x1="0" y1="0" x2="0" y2="5" stroke="#B8893D" stroke-width=".8" opacity=".55"></line>
      </pattern>
      <pattern id="stipple" patternUnits="userSpaceOnUse" width="6" height="6">
        <circle cx="1" cy="1" r=".7" fill="#8B5A2B"></circle>
      </pattern>
    </defs>
  <use href="#frame"></use>
  <g>
      
      <g transform="translate(196 280) rotate(-22)">
        
        <path d="M-66 -76 L66 -76 L46 76 L-46 76 Z" fill="#8B5A2B" stroke="#D4AE58" stroke-width="2.6"></path>
        
        <ellipse cx="0" cy="-76" rx="66" ry="14" fill="#5C3A1C" stroke="#D4AE58" stroke-width="2.2"></ellipse>
        <ellipse cx="0" cy="-76" rx="56" ry="9" fill="#12100D" stroke="#B8893D" stroke-width="1.2"></ellipse>
        
        <ellipse cx="0" cy="76" rx="46" ry="9" fill="#B8893D" stroke="#D4AE58" stroke-width="2"></ellipse>
        
        <line x1="-62" y1="-40" x2="62" y2="-40" stroke="#D4AE58" stroke-width="1.4"></line>
        <line x1="-58" y1="-8" x2="58" y2="-8" stroke="#D4AE58" stroke-width="1.4" stroke-dasharray="3 4"></line>
        <line x1="-54" y1="36" x2="54" y2="36" stroke="#D4AE58" stroke-width="1.4"></line>
        
        <g transform="translate(0 14)">
          <path d="M0 -14 L10 0 L0 14 L-10 0 Z" fill="#D4AE58"></path>
          <circle r="3" fill="#5C3A1C"></circle>
        </g>
      </g>
      
      
      <g transform="translate(298 226) rotate(-14)">
        <path d="M-22 -10 L0 -22 L22 -10 L22 14 L0 26 L-22 14 Z" fill="#D4AE58" stroke="#5C3A1C" stroke-width="1.8"></path>
        <path d="M-22 -10 L0 2 L22 -10" fill="none" stroke="#5C3A1C" stroke-width="1.4"></path>
        <path d="M0 2 L0 26" stroke="#5C3A1C" stroke-width="1.4"></path>
        
        <circle cx="-10" cy="-8" r="1.6" fill="#5C3A1C"></circle>
        <circle cx="10" cy="-8" r="1.6" fill="#5C3A1C"></circle>
        
        <circle cx="12" cy="6" r="1.6" fill="#5C3A1C"></circle>
        <circle cx="12" cy="14" r="1.6" fill="#5C3A1C"></circle>
        
        <circle cx="-12" cy="10" r="1.6" fill="#5C3A1C"></circle>
      </g>
      
      <g transform="translate(372 330) rotate(22)">
        <path d="M-18 -8 L0 -18 L18 -8 L18 12 L0 22 L-18 12 Z" fill="#B8893D" stroke="#5C3A1C" stroke-width="1.6"></path>
        <path d="M-18 -8 L0 2 L18 -8" fill="none" stroke="#5C3A1C" stroke-width="1.2"></path>
        <path d="M0 2 L0 22" stroke="#5C3A1C" stroke-width="1.2"></path>
        <circle cx="0" cy="-8" r="1.6" fill="#5C3A1C"></circle>
        <circle cx="10" cy="6" r="1.6" fill="#5C3A1C"></circle>
        <circle cx="-10" cy="8" r="1.6" fill="#5C3A1C"></circle>
      </g>
      
      <g transform="translate(290 372) rotate(-30)">
        <path d="M-14 -6 L0 -14 L14 -6 L14 10 L0 18 L-14 10 Z" fill="#D4AE58" stroke="#5C3A1C" stroke-width="1.4"></path>
        <path d="M-14 -6 L0 2 L14 -6" fill="none" stroke="#5C3A1C" stroke-width="1"></path>
        <path d="M0 2 L0 18" stroke="#5C3A1C" stroke-width="1"></path>
        <circle cx="-8" cy="-4" r="1.2" fill="#5C3A1C"></circle>
        <circle cx="8" cy="-4" r="1.2" fill="#5C3A1C"></circle>
        <circle cx="0" cy="10" r="1.2" fill="#5C3A1C"></circle>
      </g>
    </g>
</svg>